<?xml version="1.0" encoding="utf-8"?>
<!-- Generator: Adobe Illustrator 25.2.3, SVG Export Plug-In . SVG Version: 6.00 Build 0)  -->
<svg version="1.1" id="Ebene_1" xmlns="http://www.w3.org/2000/svg" xmlns:xlink="http://www.w3.org/1999/xlink" x="0px" y="0px"
	 viewBox="0 0 200 94" style="enable-background:new 0 0 200 94;" xml:space="preserve">
<style type="text/css">
	.st0{fill:#CD1719;}
</style>
<g>
	<path class="st0" d="M54.3,92.3c8.8,0,14.8-7,14.8-15v-0.1c0-8-5.9-14.9-14.8-14.9c-8.8,0-14.8,7-14.8,15v0.1
		C39.5,85.5,45.5,92.3,54.3,92.3 M54.4,89.3c-6.6,0-11.4-5.4-11.4-12v-0.1c0-6.6,4.7-11.9,11.4-11.9c6.6,0,11.4,5.4,11.4,12v0.1
		C65.7,84.1,61,89.3,54.4,89.3L54.4,89.3z M75.2,91.8h3.2V68.1l18.7,23.8h2.6v-29h-3.2v23.3L78.2,62.8h-3.1L75.2,91.8L75.2,91.8z
		 M107.6,91.8h19.6v-3h-16.3v-26h-3.3V91.8L107.6,91.8z M132.3,91.8h3.3v-29h-3.3V91.8L132.3,91.8z M143.5,91.8h3.2V68.1l18.7,23.8
		h2.6v-29h-3.2v23.3l-18.3-23.3h-3.1v29H143.5z M175.9,91.8h21.6v-3h-18.3V78.8h16.2v-3h-16.2v-9.9h18.1v-3h-21.4L175.9,91.8
		L175.9,91.8z"/>
	<path d="M2.5,58.8h19.1c10.8,0,17-4.8,17-12.7v-0.3c0-6-3.5-9-8.4-10.9C34,33.1,37,30,37,24.8v-0.3c0-3.3-1.1-5.8-3-7.6
		c-2.7-2.8-6.9-4.1-12.4-4.1h-19v46 M25.3,27.1c0,2.8-2.1,4.3-5.7,4.3H14v-8.6h5.8C23.4,22.8,25.3,24.2,25.3,27.1L25.3,27.1
		L25.3,27.1z M26.8,44.5L26.8,44.5c0,2.9-2.2,4.5-5.8,4.5h-6.9v-9H21C24.7,40,26.8,41.8,26.8,44.5L26.8,44.5z M63.9,10.1h9.8V1.7
		h-9.8V10.1L63.9,10.1z M50.8,10.1h9.8V1.7h-9.8V10.1L50.8,10.1z M62.2,59.7c12.3,0,21.3-9.6,21.3-23.3v-1
		c0-13.8-8.8-23.2-21.2-23.2C50,12.2,41,21.8,41,35.5v1C41,50.2,49.9,59.7,62.2,59.7L62.2,59.7z M62.3,49c-5.4,0-9.2-4.8-9.2-12.8
		v-0.7c0-7.9,3.7-12.7,9.2-12.7c5.4,0,9.2,4.8,9.2,12.8v0.7C71.5,44.2,67.8,49,62.3,49L62.3,49z M88.2,58.8h11.7V44.6h4.2l7.8,14.2
		h13.3l-9.4-16.6c4.8-2.4,8.2-6.7,8.2-13.5v-0.3c0-4.6-1.4-8.2-4-10.7c-2.9-3-7.6-4.6-13.8-4.6h-18L88.2,58.8L88.2,58.8z M99.9,35.2
		v-12h5.8c3.9,0,6.4,2,6.4,5.9v0.1c0,3.7-2.4,6-6.4,6H99.9L99.9,35.2z M144.3,59.5c9.8,0,16.7-5.5,16.7-14.4V45
		c0-7.8-5.4-11.3-14.1-14.1c-5.8-2.2-7.3-3.2-7.3-5.2v-0.1c0-1.7,1.5-3,4.2-3c3.7,0,7.5,1.8,10.7,4.2l6-8.8
		c-4.8-3.9-10.2-5.6-16.4-5.6c-10,0-16.4,5.8-16.4,14.1v0.2c0,8.3,6.1,11.5,14.7,14.4c5.4,1.9,6.7,3,6.7,4.8V46c0,2-1.6,3.3-4.8,3.3
		c-4.5,0-8.7-2.1-12.4-5.2l-6.3,8.6C131,57.3,137.5,59.5,144.3,59.5L144.3,59.5z M165.6,58.8h31.8V48.5h-20.2v-7.9h17.9v-9.8h-17.9
		v-7.5h19.9V13h-31.6v45.8H165.6z"/>
	<polygon class="st0" points="23,77.2 2.7,62.8 2.7,92 	"/>
	<path class="st0" d="M32.2,78"/>
</g>
</svg>
