<svg xmlns="http://www.w3.org/2000/svg" width="94" height="30" viewBox="0 0 94 30">
    <g fill="#111" fill-rule="evenodd">
        <path d="M30.093 21.508c0-1.955 1.747-3.017 3.834-3.017 1.28 0 2.446.325 3.357.9v1.939c-.947-.707-1.983-1.194-3.316-1.194-1.146 0-2.003.432-2.003 1.333 0 .816.538 1.141 1.485 1.469l1.834.65c1.776.631 2.592 1.61 2.592 3.22 0 2.025-1.764 3.143-4.078 3.143-1.52 0-2.813-.43-3.609-.972v-1.976c1.035.815 2.278 1.286 3.609 1.286 1.297 0 2.208-.452 2.208-1.448 0-.868-.58-1.208-1.597-1.589l-1.646-.578c-1.517-.544-2.67-1.339-2.67-3.166zM43.064 29.951L45.14 29.951 45.14 18.491 43.064 18.491zM7.783 29.951L9.858 29.951 9.858 18.491 7.783 18.491zM50.847 18.491v11.46h4.348c3.347 0 5.51-2.24 5.51-5.733 0-3.487-2.163-5.727-5.51-5.727h-4.348zm1.922 1.716h2.354c2.38 0 3.654 1.546 3.654 4.01 0 2.448-1.273 4-3.654 4h-2.354v-8.01zM64.856 18.491L64.856 29.951 72.12 29.951 72.12 28.217 66.846 28.217 66.846 24.662 71.576 24.662 71.576 22.964 66.846 22.964 66.846 20.207 72.12 20.207 72.12 18.491zM77.308 18.491v11.46h1.903V25.3h1.354l3.918 4.65h2.165L82.6 25.228c1.78-.282 2.614-1.383 2.614-3.302 0-2.244-1.504-3.435-3.83-3.435h-4.077zm1.903 1.681h2.138c1.267 0 1.98.692 1.98 1.754 0 1.063-.713 1.754-1.98 1.754h-2.138v-3.508zM26.461 3.416c0 1.909 1.15 2.74 2.669 3.307l1.65.605c1.017.396 1.592.755 1.592 1.662 0 1.04-.908 1.512-2.205 1.512-1.334 0-2.575-.491-3.612-1.342v2.06c.795.567 2.093 1.02 3.612 1.02 2.316 0 4.077-1.17 4.077-3.287 0-1.682-.816-2.702-2.594-3.364l-1.835-.68c-.944-.34-1.483-.68-1.483-1.53 0-.946.853-1.399 2.002-1.399 1.334 0 2.371.51 3.316 1.247V1.206C32.743.6 31.575.26 30.296.26c-2.093 0-3.835 1.115-3.835 3.156M85.61 3.416c0 1.908 1.149 2.74 2.668 3.307l1.65.605c1.018.396 1.593.756 1.593 1.663 0 1.04-.908 1.511-2.205 1.511-1.334 0-2.576-.491-3.613-1.342v2.06c.796.567 2.093 1.02 3.613 1.02 2.316 0 4.077-1.171 4.077-3.287 0-1.682-.816-2.702-2.595-3.364l-1.834-.68c-.945-.34-1.483-.68-1.483-1.53 0-.946.853-1.399 2-1.399 1.336 0 2.373.51 3.318 1.247V1.206C91.892.6 90.724.26 89.445.26c-2.093 0-3.835 1.115-3.835 3.156M74.195 3.416c0 1.908 1.149 2.74 2.669 3.307l1.648.605c1.02.396 1.594.756 1.594 1.663 0 1.04-.909 1.511-2.205 1.511-1.334 0-2.575-.491-3.612-1.342v2.06c.795.567 2.093 1.02 3.612 1.02 2.316 0 4.077-1.171 4.077-3.287 0-1.682-.817-2.702-2.595-3.364l-1.834-.68c-.945-.34-1.482-.68-1.482-1.53 0-.946.852-1.399 2-1.399 1.335 0 2.373.51 3.318 1.247V1.206C80.477.6 79.309.26 78.03.26c-2.094 0-3.836 1.115-3.836 3.156M62.262.781L62.262 12.241 69.526 12.241 69.526 10.507 64.252 10.507 64.252 6.952 68.982 6.952 68.982 5.255 64.252 5.255 64.252 2.497 69.526 2.497 69.526.781zM0 .781v11.46h4.404c2.398 0 3.898-1.14 3.898-3.285 0-1.213-.787-2.277-1.874-2.631.843-.3 1.498-1.196 1.498-2.428C7.926 1.845 6.428.781 4.03.781H0zm1.892 1.68h2.119c1.33 0 2.042.467 2.042 1.549 0 1.082-.713 1.586-2.042 1.586H1.892V2.461zm0 4.74h2.474c1.312 0 2.024.635 2.024 1.68 0 1.027-.712 1.68-2.024 1.68H1.892V7.2zM38.914 12.241L40.989 12.241 40.989.781 38.914.781zM19.817.781v6.574c0 2.168-.948 3.178-2.695 3.178-1.747 0-2.696-1.01-2.696-3.178V.781h-1.974V7.56c0 3.102 1.898 4.682 4.67 4.682 2.79 0 4.67-1.58 4.67-4.665V.781h-1.975zM54.767.441L54.767 7.87 47.215.26 47.215 12.06 49.008 12.06 49.008 4.503 56.554 12.241 56.554.441zM15.565 29.779L17.358 29.779 17.358 22.549 24.905 29.951 24.905 18.663 23.116 18.663 23.116 25.769 15.565 18.491z"/>
    </g>
</svg>
