<?xml version="1.0" encoding="UTF-8"?>
<svg version="1.1" id="Ebene_1" xmlns="http://www.w3.org/2000/svg" xmlns:xlink="http://www.w3.org/1999/xlink" x="0px" y="0px" viewBox="0 0 140 21" style="enable-background:new 0 0 140 21;" xml:space="preserve">
<style type="text/css">
	.st0{fill:#E0146A;}
	.st1{fill:#FFFFFF;}
	.st2{fill:none;stroke:#FFFFFF;stroke-linecap:square;}
</style>
<g id="Page-1">
	<g id="entdecke-zero-logo" transform="translate(0.859314, 0.453198)">
		<path id="Path" class="st0" d="M30.2,14.4l-2.1,1c-0.3,0.1-0.6,0.3-0.9,0.4c-0.3,0.1-0.5,0.4-0.6,0.7c-0.1,0.3-0.2,0.6-0.1,1    c0,0.2,0.1,0.3,0.4,0.3c0.8-0.2,1.6-0.4,2.4-0.7c2.4-0.9,4.7-2.1,6.8-3.7c0.4-0.3,0.8-0.5,1.2-0.7c0.3-0.1,0.5-0.3,0.6-0.6    c0.1-0.3,0.3-0.6,0.4-0.8c0.2-0.3,0.2-0.7,0.2-1c0-0.1,0-0.3-0.1-0.4c-0.1-0.2-0.2-0.2-0.3-0.2c-0.9,0-1.8-0.1-2.7-0.4    c-0.7-0.2-1.4-0.3-2-0.4C32,8.5,30.6,8,29.2,7.5C28.8,7.3,28.4,7.2,28,7c-0.2-0.1-0.4,0-0.5,0.2c-0.3,0.4-0.4,0.9-0.4,1.4    c0,0.2,0.2,0.4,0.4,0.5c0.5,0.2,1,0.4,1.5,0.6c1.3,0.5,2.6,1,4,1.4c0,0,0.1,0,0.1,0.1c-0.1,0.1-0.3,0.1-0.4,0.2    c-1.4,0.5-2.9,0.7-4.4,0.8c-1.8,0.1-3.7,0-5.5-0.2c-2.1-0.2-4.1-0.4-6.2-0.7c-2.6-0.4-5.1-0.8-7.6-1.6C7.7,9.3,6.4,8.8,5.1,8.4    C4.3,8.1,3.5,7.8,2.6,7.5C2.3,7.4,2,7.3,1.7,7.2C1.5,7.1,1.4,7.1,1.2,7.1c-0.1,0-0.3,0-0.3,0.2c-0.1,0.1,0,0.3,0.1,0.4    C1,7.7,1.1,7.8,1.2,7.9c0.7,0.6,1.5,1,2.4,1.4c2.1,1,4.3,2,6.5,2.7c1.1,0.3,2.3,0.6,3.4,0.9c2.7,0.6,5.5,1,8.3,1.4    c2.1,0.2,4.1,0.4,6.2,0.3c0.6,0,1.3-0.1,1.9-0.2C30,14.3,30.1,14.3,30.2,14.4L30.2,14.4"/>
		<g>
			<g>
				<path class="st0" d="M115.1,17.1h-7.6v-1l5.1-6.5l0.6-0.7l-0.9,0h-4.9V7.7h7.4v1l0,0.1l-4.9,6.3l-0.8,0.9l1.1,0h4.8V17.1z"/>
			</g>
			<g>
				<path class="st0" d="M119.6,17.2c-1.3,0-2.4-0.4-3.2-1.3c-0.7-0.9-1.1-2.1-1.1-3.6c0-1.5,0.4-2.7,1.1-3.5      c0.7-0.9,1.8-1.3,3.1-1.3c1.2,0,2.2,0.4,2.9,1.3c0.7,0.8,1.1,2,1.1,3.3c0,0.2,0,0.4,0,0.6l0,0.2h-6.9c0.1,0.9,0.4,1.7,0.9,2.2      c0.5,0.6,1.2,0.8,2.2,0.8c0.6,0,1.2-0.1,1.7-0.4c0.5-0.3,0.8-0.6,1-1.1l0.1-0.2l1.1,0.6l-0.1,0.2c-0.3,0.7-0.8,1.2-1.5,1.6      C121.3,17.1,120.5,17.2,119.6,17.2z M116.6,11.8h5.7c-0.1-0.9-0.4-1.7-0.8-2.2c-0.5-0.6-1.1-0.8-1.9-0.8c-0.9,0-1.6,0.3-2.1,0.8      C117,10.1,116.7,10.8,116.6,11.8z"/>
			</g>
			<g>
				<path class="st0" d="M126,17.1h-1.3V7.7h1.1l0.1,1.3c0.2-0.3,0.5-0.6,0.8-0.9c0.5-0.4,1.1-0.6,1.9-0.6c0.5,0,0.9,0.1,1.2,0.3      l0.1,0.1l-0.3,1.3L129.3,9c-0.2-0.2-0.6-0.3-1-0.3c-0.4,0-0.8,0.1-1.1,0.4c-0.4,0.3-0.6,0.6-0.9,1.1c-0.2,0.5-0.3,1-0.3,1.6      V17.1z"/>
			</g>
			<g>
				<path class="st0" d="M133.8,17.2c-1.3,0-2.4-0.4-3.2-1.3c-0.8-0.9-1.1-2.1-1.1-3.6s0.4-2.7,1.1-3.5c0.8-0.9,1.8-1.3,3.2-1.3      c1.3,0,2.4,0.4,3.2,1.3c0.8,0.9,1.2,2,1.2,3.5s-0.4,2.7-1.2,3.6C136.2,16.8,135.1,17.2,133.8,17.2z M133.8,8.7      c-1,0-1.7,0.3-2.2,1c-0.5,0.7-0.8,1.6-0.8,2.7c0,1.2,0.3,2.1,0.8,2.7c0.5,0.7,1.3,1,2.2,1s1.7-0.3,2.2-1      c0.5-0.7,0.8-1.6,0.8-2.7c0-1.2-0.3-2.1-0.8-2.7C135.5,9,134.7,8.7,133.8,8.7z"/>
			</g>
		</g>
		<path id="Shape_00000182528286478983275820000009422983581184018613_" class="st1" d="M51.3,16.4v-1.5h-5.5v-2.9h5v-1.4h-5V7.9    h5.4V6.4H44v10H51.3L51.3,16.4z M54.2,16.4v-4.3c0-0.3,0-0.5,0.1-0.7s0.2-0.4,0.3-0.6c0.1-0.2,0.3-0.3,0.5-0.4    c0.2-0.1,0.5-0.1,0.7-0.1c0.5,0,0.8,0.1,1,0.4s0.3,0.7,0.4,1.2v4.6H59v-5c0-0.8-0.2-1.4-0.7-1.8c-0.5-0.4-1.1-0.6-1.9-0.6    c-0.5,0-0.9,0.1-1.3,0.3c-0.4,0.2-0.7,0.5-1,0.9l0,0V9.1h-1.5v7.2H54.2L54.2,16.4z M63.1,16.4c0.2,0,0.3,0,0.5,0l0.5-0.1v-1.2    c-0.1,0-0.2,0-0.3,0s-0.2,0-0.3,0c-0.2,0-0.3,0-0.4-0.1c-0.1,0-0.2-0.1-0.2-0.2c-0.1-0.1-0.1-0.2-0.1-0.3s0-0.3,0-0.4v-3.9h1.4    V9.1h-1.4V7h-1.6v2.2h-1.2v1.2h1.2v4.3c0,0.3,0,0.6,0.1,0.8c0.1,0.2,0.1,0.4,0.3,0.6c0.1,0.2,0.3,0.3,0.6,0.4    C62.4,16.4,62.7,16.4,63.1,16.4L63.1,16.4z M68.4,16.6c0.5,0,0.9-0.1,1.3-0.3c0.4-0.2,0.7-0.5,0.9-0.9h0v1h1.5v-10h-1.6v3.7h0    c-0.1-0.2-0.3-0.4-0.5-0.5c-0.2-0.1-0.4-0.3-0.6-0.4C69.2,9.1,69,9,68.8,9c-0.2,0-0.5-0.1-0.7-0.1c-0.4,0-0.8,0.1-1.2,0.2    c-0.4,0.1-0.7,0.4-1,0.7c-0.3,0.3-0.5,0.7-0.7,1.2c-0.2,0.5-0.3,1-0.3,1.7c0,0.5,0.1,1,0.2,1.5c0.1,0.5,0.3,0.9,0.6,1.2    s0.6,0.6,1.1,0.8C67.3,16.5,67.8,16.6,68.4,16.6L68.4,16.6z M68.6,15.3c-0.3,0-0.6-0.1-0.9-0.2c-0.3-0.1-0.5-0.3-0.6-0.6    c-0.2-0.2-0.3-0.5-0.4-0.8c-0.1-0.3-0.1-0.6-0.1-0.9c0-0.3,0-0.6,0.1-1c0.1-0.3,0.2-0.6,0.3-0.8c0.2-0.2,0.4-0.4,0.6-0.6    c0.3-0.2,0.6-0.2,0.9-0.2c0.6,0,1.1,0.2,1.5,0.7c0.4,0.4,0.5,1.1,0.5,1.9c0,0.3,0,0.6-0.1,0.9c-0.1,0.3-0.2,0.6-0.4,0.8    c-0.2,0.2-0.4,0.4-0.6,0.6C69.2,15.2,68.9,15.3,68.6,15.3L68.6,15.3z M77.1,16.6c0.4,0,0.8-0.1,1.1-0.2c0.4-0.1,0.7-0.3,1-0.5    c0.3-0.2,0.5-0.5,0.7-0.8c0.2-0.3,0.3-0.7,0.4-1.1h-1.5c-0.1,0.4-0.4,0.7-0.6,0.9c-0.3,0.2-0.7,0.3-1.1,0.3    c-0.3,0-0.6-0.1-0.9-0.2c-0.2-0.1-0.4-0.3-0.6-0.5c-0.2-0.2-0.3-0.4-0.4-0.7c-0.1-0.3-0.1-0.5-0.1-0.8h5.3c0.1-0.5,0-1.1-0.1-1.6    c-0.1-0.5-0.4-1-0.7-1.4c-0.3-0.4-0.7-0.7-1.1-0.9c-0.5-0.2-1-0.4-1.5-0.4c-0.5,0-1,0.1-1.5,0.3c-0.4,0.2-0.8,0.5-1.1,0.8    c-0.3,0.4-0.5,0.8-0.7,1.2c-0.2,0.5-0.2,0.9-0.2,1.5c0,0.6,0.1,1.1,0.2,1.5c0.2,0.5,0.4,0.9,0.7,1.2c0.3,0.3,0.7,0.6,1.1,0.8    C76,16.5,76.5,16.6,77.1,16.6L77.1,16.6z M78.8,12.1h-3.7c0-0.3,0.1-0.5,0.2-0.8c0.1-0.2,0.2-0.4,0.4-0.6c0.2-0.2,0.4-0.3,0.6-0.4    c0.2-0.1,0.5-0.1,0.8-0.1c0.3,0,0.5,0.1,0.7,0.2c0.2,0.1,0.4,0.2,0.6,0.4c0.2,0.2,0.3,0.4,0.4,0.6C78.8,11.6,78.8,11.9,78.8,12.1    L78.8,12.1z M84.8,16.6c0.9,0,1.7-0.2,2.2-0.7c0.6-0.5,0.9-1.2,1.1-2.2h-1.6c-0.1,0.5-0.3,0.9-0.6,1.2c-0.3,0.3-0.7,0.4-1.2,0.4    c-0.3,0-0.6-0.1-0.9-0.2c-0.2-0.1-0.4-0.3-0.6-0.6c-0.2-0.2-0.3-0.5-0.3-0.8c-0.1-0.3-0.1-0.6-0.1-0.9c0-0.6,0.1-1,0.2-1.3    c0.1-0.3,0.3-0.6,0.5-0.8s0.4-0.3,0.6-0.4c0.2-0.1,0.5-0.1,0.7-0.1c0.4,0,0.8,0.1,1.1,0.3c0.3,0.2,0.5,0.6,0.5,1h1.6    c0-0.4-0.2-0.8-0.3-1.2c-0.2-0.3-0.4-0.6-0.7-0.8s-0.6-0.4-1-0.5c-0.4-0.1-0.8-0.2-1.2-0.2c-0.6,0-1.1,0.1-1.6,0.3    c-0.4,0.2-0.8,0.5-1.1,0.8c-0.3,0.4-0.5,0.8-0.7,1.2c-0.2,0.5-0.2,1-0.2,1.5c0,0.5,0.1,1,0.2,1.5c0.2,0.5,0.4,0.9,0.7,1.2    c0.3,0.3,0.7,0.6,1.1,0.8C83.7,16.5,84.2,16.6,84.8,16.6z M91.1,16.4v-2.6l1-0.9l2.2,3.5h1.9l-3-4.6l2.8-2.7h-2l-2.9,2.9V6.4h-1.6    v10H91.1L91.1,16.4z M100.1,16.6c0.4,0,0.8-0.1,1.1-0.2c0.4-0.1,0.7-0.3,1-0.5c0.3-0.2,0.5-0.5,0.7-0.8c0.2-0.3,0.3-0.7,0.4-1.1    h-1.5c-0.1,0.4-0.4,0.7-0.6,0.9c-0.3,0.2-0.7,0.3-1.1,0.3c-0.3,0-0.6-0.1-0.9-0.2c-0.2-0.1-0.4-0.3-0.6-0.5    c-0.2-0.2-0.3-0.4-0.4-0.7c-0.1-0.3-0.1-0.5-0.1-0.8h5.3c0.1-0.5,0-1.1-0.1-1.6c-0.1-0.5-0.4-1-0.7-1.4c-0.3-0.4-0.7-0.7-1.1-0.9    c-0.5-0.2-1-0.4-1.5-0.4c-0.5,0-1,0.1-1.5,0.3c-0.4,0.2-0.8,0.5-1.1,0.8c-0.3,0.4-0.5,0.8-0.7,1.2c-0.2,0.5-0.2,0.9-0.2,1.5    c0,0.6,0.1,1.1,0.2,1.5c0.2,0.5,0.4,0.9,0.7,1.2c0.3,0.3,0.7,0.6,1.1,0.8C99.1,16.5,99.6,16.6,100.1,16.6z M101.9,12.1h-3.7    c0-0.3,0.1-0.5,0.2-0.8c0.1-0.2,0.2-0.4,0.4-0.6c0.2-0.2,0.4-0.3,0.6-0.4c0.2-0.1,0.5-0.1,0.8-0.1c0.3,0,0.5,0.1,0.7,0.2    c0.2,0.1,0.4,0.2,0.6,0.4c0.2,0.2,0.3,0.4,0.4,0.6C101.9,11.6,101.9,11.9,101.9,12.1L101.9,12.1z"/>
		<line id="Path_00000115500417068100360100000000621775514323018369_" class="st2" x1="43.1" y1="19.5" x2="138.1" y2="19.5"/>
	</g>
</g>
</svg>