<?xml version="1.0" encoding="utf-8"?>
<svg version="1.1" id="Ebene_1" xmlns="http://www.w3.org/2000/svg" xmlns:xlink="http://www.w3.org/1999/xlink" x="0px" y="0px"
	 viewBox="0 0 148.5 19.6" style="enable-background:new 0 0 148.5 19.6;" xml:space="preserve">
<style type="text/css">
	.st0{fill:#D70413;}
	.st1{fill:#E42522;}
	.st2{fill:#FFFFFF;}
</style>
<circle class="st0" cx="118.2" cy="14.2" r="4.8"/>
<path class="st1" d="M123,14.5c0,0.1,0,0.2-0.1,0.2l0,0c-1.1,0-2.8-0.9-4.7-0.9c-1.6,0-3.6,1-4.7,1l0,0c0,0-0.1,0-0.1-0.1l0,0
	c0-0.1,0-0.3,0-0.4c-0.1-2.7,2-4.9,4.7-5c2.7-0.1,4.9,2,5,4.7c0,0.1,0,0.2,0,0.3L123,14.5L123,14.5z"/>
<path class="st2" d="M97.6,19.2h5.3v-7.4c0-2.2,1.2-2.7,2.1-2.7c1.6,0,1.7,1.1,1.7,2.7v7.3h5.1V9.6c0-3.2-2.1-4.7-4.6-4.7
	c-1.8-0.1-3.5,0.7-4.5,2.1l0,0V5.3h-5.2V19.2z M96.3,13.4c0-5.4-2.4-8.5-7.9-8.5c-3.9-0.1-7.2,3-7.4,6.9c0,0.1,0,0.3,0,0.4
	c0,4.7,3.4,7.3,7.8,7.3c3.2,0,6.1-1.4,7.2-4.4h-5c-1,1.2-2.8,1.3-3.9,0.3c-0.6-0.5-1-1.2-1-2L96.3,13.4z M86.1,10.7
	c0.1-1.4,1.3-2.4,2.7-2.3c0,0,0,0,0,0c1.3,0,2.3,1,2.3,2.3c0,0,0,0,0,0l0,0L86.1,10.7z M66.5,19.2h13.9v-3.9h-6.9l6.4-6V5.3H67.1
	v3.9h5.9l-6.5,6L66.5,19.2z M50.5,19.2h5.3v-7.4c0-2.2,1.2-2.7,2.1-2.7c1.6,0,1.8,1.1,1.8,2.7v7.3H65V9.6c0.1-2.5-1.8-4.6-4.2-4.7
	c-0.2,0-0.4,0-0.6,0c-1.8-0.1-3.5,0.7-4.5,2.1h0V5.3h-5.1L50.5,19.2L50.5,19.2z M48.7,10.3c0-2.7,0.1-5.4-6.6-5.4
	c-3.3,0-7,0.7-7.2,4.6h4.9c0-0.6,0.3-1.4,2-1.4c0.9,0,1.8,0.4,1.8,1.3s-0.7,1.1-1.5,1.2c-2.7,0.5-7.9,0.3-7.9,4.8
	c0,2.9,2.2,4.2,4.9,4.2c1.7,0.1,3.3-0.5,4.5-1.7l0,0c0,0.5,0,0.9,0.2,1.3h4.8L48.7,10.3L48.7,10.3z M43.6,14.2c0,1.2-0.9,2.1-2,2.2
	h-0.2c-0.8,0.1-1.5-0.5-1.7-1.3c0-0.9,0.6-1.2,1.8-1.5c0.7-0.1,1.4-0.4,2.1-0.7L43.6,14.2z M18.6,19.2h5.3v-7.4
	c0-2.2,1.2-2.7,2.1-2.7c1.6,0,1.7,1.1,1.7,2.7v7.3h5.3V9.6c0.1-2.5-1.8-4.6-4.2-4.7c-0.2,0-0.4,0-0.6,0c-1.8-0.1-3.5,0.7-4.5,2.1
	h-0.1V5.3h-5.1L18.6,19.2z M1.6,19.2h5.3V9.1h2.7V5.3H6.8C6.7,4,7.1,3.8,8.4,3.8h1.3V0H7.3C5.2,0,3.8,0.2,2.7,1.3
	C1.8,2.4,1.4,3.9,1.6,5.3H0v3.9h1.6L1.6,19.2z M16.6,0h-5.3v3.8h5.3V0z M11.3,19.2h5.3V5.3h-5.3V19.2z"/>
<path class="st2" d="M130.4,19.6c-0.9,0-1.8-0.2-2.6-0.6c-0.7-0.4-1.4-0.9-1.9-1.5c-0.5-0.6-0.9-1.4-1.2-2.2
	c-0.3-0.9-0.4-1.7-0.4-2.6c0-0.9,0.1-1.9,0.4-2.8c0.2-0.9,0.6-1.7,1.2-2.4c0.5-0.7,1.2-1.3,2-1.7c0.9-0.4,1.9-0.6,2.9-0.6
	c0.6,0,1.3,0.1,1.9,0.3c0.6,0.2,1.1,0.5,1.6,0.9c0.5,0.4,0.9,0.9,1.2,1.4c0.3,0.6,0.5,1.3,0.6,2l0.1,0.5h-1.4l-0.1-0.4
	c-0.1-0.5-0.2-1-0.5-1.5c-0.2-0.4-0.5-0.7-0.9-1c-0.3-0.3-0.7-0.5-1.2-0.6c-0.5-0.1-0.9-0.2-1.4-0.2c-0.8,0-1.6,0.2-2.4,0.5
	c-0.6,0.3-1.1,0.8-1.6,1.4c-0.4,0.6-0.7,1.3-0.9,2c-0.2,0.7-0.3,1.5-0.3,2.2c0,0.7,0.1,1.4,0.3,2.1c0.2,0.6,0.5,1.2,0.9,1.8
	c0.4,0.5,0.9,0.9,1.5,1.1c0.6,0.3,1.3,0.5,2.1,0.4c0.6,0,1.1-0.1,1.6-0.3c1-0.3,1.8-1,2.3-1.9c0.3-0.5,0.4-1,0.4-1.6v-0.4h1.4v0.5
	c-0.1,0.7-0.2,1.4-0.6,2.1l0,0c-0.3,0.6-0.7,1.2-1.2,1.6c-0.5,0.4-1.1,0.8-1.7,1C131.9,19.5,131.1,19.6,130.4,19.6z"/>
<path class="st2" d="M148.5,19.3h-1.4v-8.9c0-0.6-0.1-1.2-0.3-1.8c-0.2-0.4-0.4-0.8-0.8-1.1c-0.3-0.3-0.7-0.5-1.1-0.7
	c-0.5-0.1-0.9-0.2-1.4-0.2c-0.6,0-1.3,0.1-1.8,0.4c-0.5,0.2-1,0.6-1.3,1.1c-0.4,0.5-0.7,1-0.8,1.6c-0.2,0.6-0.3,1.3-0.3,1.9v7.7
	h-1.4V0.5h1.4v6.7c0.6-0.8,1.4-1.4,2.4-1.7c0.6-0.2,1.2-0.3,1.9-0.3c0.7,0,1.4,0.1,2,0.3c1.2,0.4,2.2,1.4,2.7,2.6
	c0.3,0.7,0.4,1.4,0.4,2.1L148.5,19.3z"/>
</svg>
