<?xml version="1.0" encoding="UTF-8"?>
<svg width="12px" height="12px" viewBox="0 0 12 12" version="1.1" xmlns="http://www.w3.org/2000/svg" xmlns:xlink="http://www.w3.org/1999/xlink">
    <title>fnb-symbol</title>
    <g id="Symbols" stroke="none" stroke-width="1" fill="none" fill-rule="evenodd">
        <g id="fnb-symbol" transform="translate(-2.000000, -2.000000)">
            <g transform="translate(2.000000, 2.000000)">
                <path d="M6.35708009,8.33790235 C6.35708009,6.77950232 7.62028011,5.5163023 9.17908014,5.5163023 C10.7370802,5.5163023 12.0002802,6.77950232 12.0002802,8.33790235 C12.0002802,9.89630237 10.7370802,11.1595024 9.17908014,11.1595024 C7.62028011,11.1595024 6.35708009,9.89630237 6.35708009,8.33790235" id="Fill-1" fill="#1F7732"></path>
                <path d="M11.9961202,8.49474235 C11.9909202,8.56074235 11.9649202,8.61274235 11.9377202,8.61074235 L11.9121202,8.61074235 C11.2953202,8.61074235 10.2793202,8.05434234 9.18052014,8.05434234 C8.23572012,8.05434234 7.06532011,8.63234235 6.4545201,8.63234235 L6.4353201,8.63234235 C6.4149201,8.63354235 6.3877201,8.61674235 6.37492009,8.59514235 L6.37092009,8.58074235 C6.34852009,8.50314235 6.36012009,8.41874235 6.36012009,8.33634235 C6.36012009,6.77874232 7.62292011,5.5163423 9.18052014,5.5163423 C10.7377202,5.5163423 12.0005202,6.77874232 12.0005202,8.33634235 C12.0005202,8.38954235 11.9989202,8.44234235 11.9961202,8.49474235" id="Fill-3" fill="#2FA037"></path>
                <path d="M0.918000014,11.2338224 L4.03040006,11.2338224 L4.03040006,5.3422223 L5.60120008,5.3422223 L5.60120008,3.07342227 L3.96640006,3.07342227 C3.91920006,2.31902226 4.13520006,2.20782226 4.89120007,2.20782226 L5.68040008,2.20782226 L5.68040008,0.00622222231 C5.20840008,-0.00777777789 4.75280007,0.00622222231 4.28200006,0.00622222231 C3.02360005,0.00622222231 2.23720003,0.102222224 1.56200002,0.778622234 C0.963200014,1.37582224 0.884000013,2.27182226 0.918000014,3.07342227 L6.98552327e-13,3.07342227 L6.98552327e-13,5.3422223 L0.918000014,5.3422223 L0.918000014,11.2338224 Z" id="Fill-6" fill="#0C5798"></path>
            </g>
        </g>
    </g>
</svg>