<?xml version="1.0" encoding="utf-8"?>
<!-- Generator: Adobe Illustrator 25.4.1, SVG Export Plug-In . SVG Version: 6.00 Build 0)  -->
<svg version="1.1" id="Ebene_1" xmlns="http://www.w3.org/2000/svg" xmlns:xlink="http://www.w3.org/1999/xlink" x="0px" y="0px"
	 viewBox="0 0 2581.9 349.8" style="enable-background:new 0 0 2581.9 349.8;" xml:space="preserve">
<style type="text/css">
	.st0{fill-rule:evenodd;clip-rule:evenodd;fill:#D70413;}
	.st1{fill-rule:evenodd;clip-rule:evenodd;fill:#E42522;}
	.st2{fill:#FFFFFF;}
	.st3{fill-rule:evenodd;clip-rule:evenodd;fill:#FFFFFF;}
</style>
<g id="Ebene_2_00000146458049959395420720000011325243318510676904_">
	<g id="Ebene_1-2">
		<path class="st0" d="M1003.7,273c34.8,0,63.1-29,63.1-63.8c0-35.5-28.3-63.8-63.1-63.8s-63.1,29-63.1,63.8
			C940.6,244.7,968.9,273,1003.7,273"/>
		<path class="st1" d="M1003.7,199.1c26.8,0,50,14.5,62.4,12.3v-2.2c0-35.5-28.3-63.8-63.1-63.8s-63.1,29-63.1,63.8v2.2
			C952.9,214.3,976.9,199.1,1003.7,199.1"/>
		<path class="st2" d="M1211.4,113.6c-2.7-5.3-6.5-9.9-11.2-13.5c-4.8-3.6-10.3-6.3-16.2-7.8c-6.3-1.7-12.9-2.5-19.4-2.5
			c-5.4,0-10.9,0.6-16.2,1.7c-5.3,1.1-10.3,3-15,5.7c-4.4,2.6-8.2,6.2-11,10.5c-2.8,4.3-4.2,9.6-4.2,16c-0.2,4.8,1.3,9.6,4,13.5
			c2.7,3.7,6.2,6.9,10.1,9.3c4.2,2.6,8.7,4.7,13.3,6.3c4.8,1.7,9.3,3,13.3,4l32,7.2c7,1.1,13.8,2.9,20.4,5.5
			c6.5,2.5,12.5,6.1,17.9,10.5c5.3,4.4,9.6,9.9,12.8,16c3.3,6.3,4.9,13.8,4.9,22.5c0,10.7-2.4,19.7-7.2,27.2
			c-4.8,7.4-11.1,13.6-18.6,18.3c-7.8,4.8-16.3,8.2-25.3,10.1c-9.1,2-18.4,3-27.8,3c-23.1,0-41.8-5.5-56.1-16.4
			c-14.3-10.9-22.5-28.4-24.6-52.5h24c1,16.2,6.9,28.5,17.7,36.7c10.8,8.2,24.2,12.4,40.2,12.4c6.1,0,12.1-0.7,18.1-1.9
			c6.1-1.2,11.9-3.4,17.3-6.5c5.2-2.9,9.6-6.8,13.1-11.6c3.4-4.7,5.1-10.4,5.1-17.3c0-5.8-1.2-10.7-3.6-14.7c-2.5-4-5.8-7.4-9.7-9.9
			c-4.3-2.8-9-5-13.9-6.7c-5.2-1.8-10.5-3.3-15.8-4.6l-30.8-6.9c-7.4-1.9-14.6-4.2-21.7-7c-6.2-2.4-12.1-5.8-17.3-9.9
			c-4.9-3.9-8.9-8.9-11.6-14.5c-2.8-5.7-4.2-12.7-4.2-21.1c0-9.9,2.2-18.4,6.7-25.5c4.3-7,10.3-12.9,17.3-17.1
			c7.4-4.4,15.4-7.6,23.8-9.5c8.5-2,17.3-3,26.1-3c9.3-0.1,18.6,1.2,27.6,3.8c8.2,2.4,15.8,6.4,22.5,11.8
			c6.5,5.4,11.8,12.1,15.4,19.8c3.8,7.9,6,17.1,6.5,27.8h-24C1215.9,126.2,1214.4,119.6,1211.4,113.6z"/>
		<path class="st2" d="M1345.4,75.4v20.2h-40V228c0,7.9,1.1,14,3.2,18.5c2.2,4.4,7.6,6.9,16.2,7.4c6.9,0,13.7-0.4,20.6-1.1v20.2
			c-3.6,0-7.1,0.1-10.7,0.4s-7.1,0.4-10.7,0.4c-16,0-27.2-3.1-33.5-9.3s-9.4-17.7-9.1-34.4V95.5h-34.2V75.4h34.3v-59h24v59H1345.4z"
			/>
		<path class="st2" d="M1369.4,75.4l64.7,167.5l60.5-167.5h24l-85.3,226.1c-2.9,7.1-6.2,14-9.9,20.7c-2.6,4.9-6,9.3-10.1,13
			c-3.8,3.2-8.2,5.5-12.9,6.9c-6.2,1.5-12.5,2.2-18.8,2.1l-11.2-0.6c-2.4-0.1-4.7-0.5-7-1.3V322c2.8,0.5,5.5,1,8.2,1.3
			c2.7,0.4,5.4,0.6,8.2,0.6c5.3,0,9.7-0.8,13.1-2.3c3.4-1.5,6.4-3.6,9-6.3c2.7-2.9,4.9-6.1,6.5-9.7c1.8-3.8,3.7-8,5.7-12.6l8.3-22.1
			l-78.4-195.6H1369.4z"/>
		<path class="st2" d="M1552.5,0v271.8h-24V0H1552.5z"/>
		<path class="st2" d="M1602.2,206.9c2.3,9,6.2,17.4,11.6,24.9c5.4,7.4,12.3,13.6,20.2,18.3c8.1,4.8,17.9,7.2,29.3,7.2
			c17.5,0,31.2-4.6,41.1-13.7s16.8-21.3,20.6-36.5h24c-5.1,22.3-14.4,39.6-28,51.8c-13.6,12.2-32.8,18.3-57.7,18.3
			c-15.5,0-28.9-2.7-40.2-8.2c-10.9-5.1-20.4-12.8-27.6-22.5c-7.3-9.9-12.7-21.2-15.8-33.1c-3.5-13-5.2-26.3-5.1-39.8
			c0-12.9,1.7-25.7,5.1-38.1c3.2-12,8.6-23.2,15.8-33.3c7.2-9.9,16.7-18,27.6-23.6c11.3-6,24.7-9,40.2-9c15.7,0,29.2,3.2,40.3,9.5
			c10.9,6.1,20.2,14.6,27.2,24.9c7.2,10.8,12.3,22.8,15,35.4c3,13.3,4.3,26.9,3.8,40.5h-151.1
			C1598.6,189.1,1599.8,198.1,1602.2,206.9z M1720.9,133.6c-2.8-8.1-7-15.6-12.4-22.3c-5.3-6.5-11.9-11.8-19.4-15.6
			c-8-4-16.9-6.1-25.9-5.9c-9.9,0-18.6,2-26.3,5.9c-7.5,3.8-14.1,9.1-19.4,15.6c-5.5,6.7-9.8,14.3-12.8,22.5
			c-3.1,8.4-5.3,17.2-6.3,26.1h127.1C1725.5,150.9,1723.9,142.1,1720.9,133.6z"/>
		<path class="st2" d="M1929.1,295c-3.2,11.7-8.2,21.6-15,29.7c-6.8,8.1-15.8,14.3-26.8,18.6c-11,4.3-24.6,6.5-40.5,6.5
			c-9.7,0-19.5-1.1-28.9-3.4c-9-2.1-17.5-5.7-25.3-10.7c-7.4-4.8-13.8-11.1-18.7-18.5c-4.9-7.5-7.8-16.4-8.6-26.8h24
			c1,6.7,3.5,13,7.4,18.5c3.6,4.9,8.1,8.9,13.3,12c5.4,3.1,11.2,5.4,17.3,6.7c6.4,1.4,12.9,2.1,19.4,2.1c22.3,0,38.4-6.3,48.3-19
			c9.9-12.7,14.9-30.9,14.8-54.8v-26.7h-0.8c-5.3,11.9-13.8,22-24.6,29.3c-10.8,7.4-23.4,11-37.9,11c-15.7,0-29.2-2.6-40.3-7.8
			c-10.8-4.9-20.2-12.3-27.6-21.5c-7.4-9.5-12.8-20.5-15.8-32.2c-3.4-12.9-5-26.1-4.9-39.4c-0.1-13,1.9-25.9,5.9-38.2
			c3.6-11.5,9.5-22.3,17.1-31.6c7.6-9.1,17.1-16.4,27.8-21.3c11-5.2,23.7-7.8,37.9-7.8c7-0.1,14,0.9,20.7,3
			c6.3,1.9,12.3,4.8,17.7,8.6c5.3,3.7,10.1,8,14.3,12.8c4,4.5,7.3,9.7,9.7,15.2h0.8V75.4h24v180.4
			C1934.1,269,1932.5,282.2,1929.1,295z M1874.1,242.7c7.8-4.4,14.5-10.3,19.8-17.5c5.5-7.5,9.5-16,12-24.9c2.7-9.4,4-19.1,4-28.9
			c0-9.7-1.2-19.4-3.4-28.9c-2.1-9.3-5.9-18.2-11-26.3c-5-7.8-11.7-14.3-19.6-19c-8-4.8-17.7-7.2-29.1-7.2c-11.4,0-21.2,2.3-29.3,7
			c-8,4.6-14.9,10.9-20.2,18.5c-5.5,7.9-9.4,16.7-11.6,26.1c-2.4,9.8-3.6,19.8-3.6,29.9c0,9.8,1.3,19.5,3.8,28.9
			c2.3,9,6.3,17.4,11.8,24.9c5.4,7.3,12.2,13.2,20.2,17.5c8.1,4.4,17.8,6.7,28.9,6.7C1857.1,249.3,1866.3,247.1,1874.1,242.7
			L1874.1,242.7z"/>
		<path class="st2" d="M2102.5,271.8v-35.4h-0.8c-5.9,12.7-15.5,23.2-27.6,30.3c-12.2,7-26.1,10.6-40.2,10.5
			c-12.4,0-23-1.7-31.8-5.1c-8.2-3-15.5-8.1-21.3-14.7c-5.7-6.7-9.8-14.7-12-23.2c-2.7-10.2-4-20.7-3.8-31.2V75.4h24v127.9
			c0.5,17.8,4.6,31.2,12.4,40.3s21.1,13.7,40.2,13.7c10.4,0,19.3-2.2,26.7-6.7c7.4-4.4,13.6-10.5,18.3-17.7
			c5-7.8,8.6-16.3,10.7-25.3c2.3-9.5,3.4-19.3,3.4-29.1V75.4h24v196.4H2102.5z"/>
		<path class="st2" d="M2180.2,0v38.5h-24V0H2180.2z M2180.2,75.4v196.4h-24V75.4H2180.2z"/>
		<path class="st2" d="M2362.9,271.8v-37.3h-0.8c-2.6,6.5-6.4,12.4-11.2,17.5c-4.9,5.3-10.6,9.9-16.9,13.5
			c-6.4,3.7-13.2,6.6-20.4,8.6c-7,2-14.2,3-21.5,3c-15,0-28-2.7-39-8.2c-10.8-5.3-20.3-12.9-27.6-22.5c-7.5-9.9-13.1-21.1-16.4-33.1
			c-7.1-26-7.1-53.5,0-79.6c3.3-12,8.8-23.2,16.4-33.1c7.4-9.5,16.8-17.3,27.5-22.7c11-5.6,24-8.4,39-8.4c7.3,0,14.5,0.9,21.5,2.7
			c6.9,1.7,13.5,4.5,19.6,8.2c6.1,3.7,11.5,8.2,16.2,13.5c4.8,5.5,8.5,11.8,10.9,18.7h0.8V0h24v271.8H2362.9z M2231.4,203.8
			c2.2,9.5,6.1,18.6,11.4,26.8c5.1,7.8,12,14.4,20,19.2c8.1,4.9,17.9,7.4,29.3,7.4c12.7,0,23.4-2.5,32.2-7.4
			c8.5-4.7,15.8-11.3,21.3-19.2c5.6-8.1,9.6-17.2,11.8-26.8c4.8-19.9,4.8-40.6,0-60.5c-2.2-9.6-6.2-18.7-11.8-26.8
			c-5.6-7.9-12.8-14.5-21.3-19.2c-8.7-4.9-19.5-7.4-32.2-7.4c-11.4,0-21.2,2.5-29.3,7.4c-8,4.8-14.8,11.4-20,19.2
			c-5.3,8.2-9.2,17.3-11.4,26.8C2226.6,163.2,2226.6,183.9,2231.4,203.8L2231.4,203.8z"/>
		<path class="st2" d="M2434.3,206.9c2.3,9,6.2,17.4,11.6,24.9c5.4,7.4,12.2,13.6,20.1,18.3c8.1,4.8,17.9,7.2,29.3,7.2
			c17.5,0,31.2-4.6,41.1-13.7s16.8-21.3,20.6-36.5h24c-5.1,22.3-14.4,39.6-28,51.8c-13.6,12.2-32.8,18.3-57.7,18.3
			c-15.5,0-28.9-2.7-40.2-8.2c-10.9-5.1-20.4-12.8-27.6-22.5c-7.3-9.9-12.7-21.2-15.8-33.1c-3.5-13-5.2-26.4-5.1-39.8
			c0-12.9,1.7-25.7,5.1-38.1c3.2-12,8.6-23.2,15.8-33.3c7.2-9.9,16.7-18,27.6-23.6c11.3-6,24.7-9,40.2-9c15.7,0,29.2,3.2,40.3,9.5
			c10.9,6.1,20.2,14.6,27.2,24.9c7.2,10.8,12.3,22.8,15,35.4c3,13.3,4.3,26.9,3.8,40.5h-151.1
			C2430.7,189.1,2431.9,198.1,2434.3,206.9z M2553,133.6c-2.8-8.1-7-15.6-12.4-22.3c-5.3-6.5-11.9-11.8-19.4-15.6
			c-8-4-16.9-6.1-25.9-5.9c-9.9,0-18.7,2-26.3,5.9c-7.5,3.8-14.1,9.1-19.4,15.6c-5.5,6.7-9.8,14.3-12.8,22.5
			c-3.1,8.4-5.3,17.2-6.3,26.1h127.1C2557.5,150.9,2555.9,142.1,2553,133.6z"/>
		<path class="st3" d="M159.4,276.4h74.5V77.2h-74.5V276.4z M159.4,56.5h74.5V3.4h-74.5V56.5z M29.5,276.4h74.5V133.3h37.6V77.9
			h-39.1c-1.5-18.5,4.4-21.4,22.1-21.4h19.2V2.6c-11.1-0.7-22.1,0-33.2,0C80.4,2.6,62,4.8,45.8,21.1c-14,14.8-16.2,36.2-15.5,56.1H0
			v56.1h30.3v143.2H29.5z M253.1,276.4h74.5V171.6c0-31.7,17-38.4,29.5-38.4c22.1,0,24.4,16.2,24.4,39.1v104.1h74.5V139.9
			c0-45.8-31.7-67.2-67.2-67.2c-29.5,0-49.4,10.3-63.5,30.2h-0.7V77.9h-71.6L253.1,276.4z"/>
		<path class="st2" d="M632.5,278.1h-19.8V147.6c0-18.7-4.9-32.3-15.1-41.6c-10.3-9.4-23-14-38.7-14c-20,0-35,6.6-45.9,20.3
			c-11.1,13.9-16.7,31.6-16.7,52.6v113.2h-19.8V76.6h19.8v25.6c3.9-5.4,8.6-10.3,13.8-14.4c12.8-10.3,29.3-15.5,48.8-15.5
			c21.7,0,39.5,6.6,53,19.6s20.5,31.5,20.5,54.7L632.5,278.1z"/>
		<path class="st2" d="M738.5,282.9c-29.9,0-52.5-9.9-67.3-29.6c-14.4-19.1-21.7-44.6-21.7-75.8c0-31.7,8.7-57.4,25.9-76.4
			c17.3-19.2,38.6-29,63.1-29c29.5,0,52,10.6,67,31.3c14.6,20.2,22,45.4,22,74.9v6.2H669.4c0.8,23.4,6.5,42.4,16.7,56.4
			c10.9,14.9,27.8,22.1,51.6,22.1c18.3,0,33.6-5,45.5-14.9s19.4-24.4,22.3-43.1l0.8-5.2h19.6l-0.8,6.9c-2.6,23.1-12.1,41.8-28,55.5
			S761.5,282.9,738.5,282.9z M669.5,164.9h138.1c-1-20.4-7-37.5-18-51.1C777.8,99.1,761.3,92,739.3,92c-19.5,0-35.7,7-49.4,21.5
			C677.5,126.6,670.6,143.9,669.5,164.9L669.5,164.9z"/>
		<path class="st2" d="M894.5,278.1c-11.5,0-20.6-3.2-27.2-9.7s-10-17-10-31.9V96.4h-34.9V76.6h35V17h19.8v59.6h42.7v19.8h-42.7
			v138.7c0,14.2,3.1,18.2,4.4,19.2c3.4,2.7,8.4,4,14.8,4c11.3,0,13.8-0.6,14.2-0.8l8.1-2.6V277h-6.2c-1.6,0-4.2,0.2-7.7,0.5
			C900.9,277.9,897.4,278.1,894.5,278.1z"/>
	</g>
</g>
</svg>
