<svg id="Ebene_1" data-name="Ebene 1" xmlns="http://www.w3.org/2000/svg" viewBox="0 0 16 16"><defs><style>.cls-1{fill:#4285f4;}.cls-2{fill:#34a853;}.cls-3{fill:#fbbc04;}.cls-4{fill:#ea4335;}</style></defs><path class="cls-1" d="M15.68,8.18a9.74,9.74,0,0,0-.13-1.62H8V9.64h4.32a3.69,3.69,0,0,1-1.6,2.43v2H13.3a7.82,7.82,0,0,0,2.38-5.89Z"/><path class="cls-2" d="M8,16a7.65,7.65,0,0,0,5.3-1.93l-2.58-2A4.86,4.86,0,0,1,3.51,9.53H.85v2.06A8,8,0,0,0,8,16Z"/><path class="cls-3" d="M3.51,9.53a4.72,4.72,0,0,1,0-3.06V4.41H.85a8,8,0,0,0,0,7.18Z"/><path class="cls-4" d="M8,3.17a4.34,4.34,0,0,1,3.07,1.2l2.28-2.29A7.67,7.67,0,0,0,8,0,8,8,0,0,0,.85,4.41L3.51,6.47A4.77,4.77,0,0,1,8,3.17Z"/></svg>