<svg xmlns="http://www.w3.org/2000/svg" width="121" height="19" viewBox="0 0 121 19">
    <g fill="#111" fill-rule="evenodd">
        <path d="M0 17.72L2.927 17.72 2.927.424 0 .424zM12.053 17.793L14.92 17.793 14.92 6.556 27.033 18.059 27.033.521 24.166.521 24.166 11.567 12.053.254zM34.827 13.474c1.611 1.266 3.54 1.997 5.61 1.997 2.015 0 3.425-.703 3.425-2.25 0-1.35-.892-1.885-2.475-2.475l-2.56-.9c-2.36-.845-4.144-2.083-4.144-4.924 0-3.038 2.705-4.697 5.956-4.697 1.985 0 3.799.506 5.208 1.406v3.01c-1.467-1.097-3.079-1.856-5.15-1.856-1.784 0-3.108.675-3.108 2.082 0 1.265.835 1.772 2.302 2.277l2.849 1.013c2.762.984 4.028 2.504 4.028 5.007 0 3.15-2.733 4.895-6.33 4.895-2.36 0-4.373-.675-5.611-1.52v-3.065zM53.509 17.778L56.501 17.778 56.501.506 53.509.506zM72.407 15.162c3.711 0 5.697-2.336 5.697-6.02 0-3.713-1.986-6.048-5.697-6.048H68.74v12.068h3.668zM65.746.507h6.776c5.208 0 8.575 3.375 8.575 8.635s-3.367 8.636-8.575 8.636h-6.776V.507zM98.605.506L98.605 3.094 90.823 3.094 90.823 7.25 97.8 7.25 97.8 9.81 90.823 9.81 90.823 15.162 98.605 15.162 98.605 17.778 87.888 17.778 87.888.506zM108.813 8.326h3.358c1.986 0 3.108-1.04 3.108-2.644s-1.122-2.644-3.108-2.644h-3.358v5.288zm0 2.448v7.004h-2.992V.506h6.408c3.655 0 6.014 1.8 6.014 5.176 0 2.897-1.316 4.557-4.107 4.979l6.352 7.117h-3.396l-6.15-7.004h-2.13z"/>
    </g>
</svg>
