<svg xmlns="http://www.w3.org/2000/svg" viewBox="0 0 312.43 80"><defs><style>.cls-1{fill:#111;}</style></defs><title>InsiderIntelligence_Black</title><g id="Layer_2" data-name="Layer 2"><g id="Logos"><polygon class="cls-1" points="303.43 62.08 303.43 65.68 311.49 65.68 311.49 70.03 303.43 70.03 303.43 75.06 312.43 75.06 312.43 79.49 298.72 79.49 298.72 57.7 312.43 57.7 312.43 62.08 303.43 62.08"/><path class="cls-1" d="M286.59,59.2l.23.21v5.48l-.08-.11-1-1a8.55,8.55,0,0,0-6-2.09c-3.49,0-5.84,2.75-5.84,6.88s2.35,6.83,5.84,6.83a8.51,8.51,0,0,0,6-2.09l1.1-1v5.51l-.23.18c-1.48,1.25-4,2-6.91,2-6.27,0-10.63-4.67-10.63-11.34s4.36-11.35,10.63-11.35A11.25,11.25,0,0,1,286.59,59.2Z"/><polygon class="cls-1" points="253.2 57.7 257.84 57.7 257.84 80 257.76 79.92 243.82 67.05 243.82 79.49 239.15 79.49 239.15 57.19 239.23 57.27 253.2 69.88 253.2 57.7"/><polygon class="cls-1" points="212.06 57.7 225.75 57.7 225.75 62.08 216.78 62.08 216.78 65.68 224.83 65.68 224.83 70.03 216.78 70.03 216.78 75.06 225.75 75.06 225.75 79.49 212.06 79.49 212.06 57.7"/><path class="cls-1" d="M190.88,67.26h8.44v9.22l-.21.18C197.23,78.75,194,80,190.24,80c-6.32,0-10.58-4.56-10.58-11.34,0-6.58,4.62-11.35,11-11.35a12,12,0,0,1,7,1.92l.26.2v5.43l-.08-.08-1-.89a9,9,0,0,0-6.12-2.11c-3.67,0-6.11,2.75-6.11,6.88s2.27,6.9,5.78,6.9a8.17,8.17,0,0,0,4.46-1v-3h-3.87Z"/><rect class="cls-1" x="162.33" y="57.7" width="4.79" height="21.79"/><polygon class="cls-1" points="139.83 75.06 149.64 75.06 149.64 79.49 135.03 79.49 135.03 57.7 139.83 57.7 139.83 75.06"/><polygon class="cls-1" points="112.5 75.06 122.32 75.06 122.32 79.49 107.74 79.49 107.74 57.7 112.5 57.7 112.5 75.06"/><polygon class="cls-1" points="79.78 57.7 93.49 57.7 93.49 62.08 84.49 62.08 84.49 65.68 92.55 65.68 92.55 70.03 84.49 70.03 84.49 75.06 93.49 75.06 93.49 79.49 79.78 79.49 79.78 57.7"/><polygon class="cls-1" points="49.47 57.7 67.82 57.7 67.82 62.08 61.04 62.08 61.04 79.49 56.25 79.49 56.25 62.08 49.47 62.08 49.47 57.7"/><polygon class="cls-1" points="33.92 57.7 38.56 57.7 38.56 80 38.49 79.92 24.55 67.05 24.55 79.49 19.88 79.49 19.88 57.19 19.96 57.27 33.92 69.88 33.92 57.7"/><rect class="cls-1" y="57.7" width="4.79" height="21.79"/><path class="cls-1" d="M35.9,38.36H29.51V.61H35.9Z"/><path class="cls-1" d="M87.46,39l-26-25.15V38.36H55.34V0l26,24.73V.61h6.15Z"/><path class="cls-1" d="M103.92,29a19.1,19.1,0,0,0,12,4.36c4.31,0,7.32-1.54,7.32-4.92,0-2.95-1.91-4.12-5.29-5.41l-5.47-2c-5-1.85-8.85-4.55-8.85-10.76C103.62,3.63,109.4,0,116.34,0a20.4,20.4,0,0,1,11.13,3.07V9.65a17.48,17.48,0,0,0-11-4.06c-3.82,0-6.64,1.48-6.64,4.55,0,2.77,1.78,3.88,4.92,5l6.08,2.22c5.9,2.15,8.61,5.47,8.61,10.94,0,6.89-5.84,10.7-13.53,10.7a21.61,21.61,0,0,1-12-3.32Z"/><path class="cls-1" d="M150.23,38.36h-6.39V.61h6.39Z"/><path class="cls-1" d="M170,.61h14.48C195.6.61,202.79,8,202.79,19.49s-7.19,18.87-18.32,18.87H170Zm14.23,32c7.93,0,12.17-5.11,12.17-13.16S192.15,6.27,184.22,6.27h-7.84V32.65Z"/><path class="cls-1" d="M240.2.61V6.27H223.57v9.08h14.91V21H223.57v11.7H240.2v5.71H217.3V.61Z"/><path class="cls-1" d="M262,23.05V38.36h-6.39V.61h13.69c7.81,0,12.85,3.94,12.85,11.32,0,6.33-2.81,10-8.78,10.88L287,38.36H279.7L266.56,23.05Zm0-5.34h7.18c4.24,0,6.64-2.28,6.64-5.78s-2.4-5.78-6.64-5.78H262Z"/></g></g></svg>