<svg xmlns="http://www.w3.org/2000/svg" viewBox="0 0 270 56"><defs><style>.cls-1{isolation:isolate;}.cls-2{mix-blend-mode:multiply;}.cls-3{fill:#fff;}</style></defs><g class="cls-1"><g id="Ebene_1" data-name="Ebene 1"><g class="cls-2"><path d="M111.94,30.53c13.18,2.94,22.86,11.18,27.44,20.34.69-2.22,1.38-4.45,2.06-6.67.13-.42.68-.53,1.24-.25l.12.06a1.18,1.18,0,0,1,.72,1.27c-1,2.82-2.08,5.65-3.13,8.47a.66.66,0,0,1-1,.3,29.75,29.75,0,0,0-9.26-3.39,1,1,0,0,1-.85-.94v-.11a.7.7,0,0,1,.9-.63,31.29,31.29,0,0,1,7.65,2.42c-4.72-8.89-14.5-16.74-27.62-19.16-.65-.12-.83-.58-.39-1a.94.94,0,0,0,.1-.1A2.44,2.44,0,0,1,111.94,30.53Z"/></g><path class="cls-3" d="M111.94,29.53c13.18,2.94,22.86,11.18,27.44,20.34.69-2.22,1.38-4.45,2.06-6.67.13-.42.68-.53,1.24-.25l.12.06a1.18,1.18,0,0,1,.72,1.27c-1,2.82-2.08,5.65-3.13,8.47a.66.66,0,0,1-1,.3,29.75,29.75,0,0,0-9.26-3.39,1,1,0,0,1-.85-.94v-.11a.7.7,0,0,1,.9-.63,31.29,31.29,0,0,1,7.65,2.42c-4.72-8.89-14.5-16.74-27.62-19.16-.65-.12-.83-.58-.39-1a.94.94,0,0,0,.1-.1A2.44,2.44,0,0,1,111.94,29.53Z"/><g class="cls-2"><path d="M15.05,3.7a.85.85,0,0,1,.58.23.66.66,0,0,1,.26.52,51.52,51.52,0,0,1-.6,6.83,16.22,16.22,0,0,1-1.93,6.33,4.1,4.1,0,0,1-3.6,2.05,6.49,6.49,0,0,1-3.6-1.26c-1.25-.85-1.87-1.57-1.87-2.15s.35-.93,1-.93c.21,0,.52.2.91.58a5.35,5.35,0,0,0,3.55,1.94,2.61,2.61,0,0,0,2.29-1.51,15.2,15.2,0,0,0,1.41-5.08A44.64,44.64,0,0,0,14,4.57a.77.77,0,0,1,.34-.6A1.12,1.12,0,0,1,15.05,3.7Z"/><path d="M27.34,16q0,1.08-1.89,2.58a6.22,6.22,0,0,1-3.91,1.51,3.37,3.37,0,0,1-2.6-1A3.92,3.92,0,0,1,18,16.29a9.34,9.34,0,0,1,2-5.7c1.35-1.81,2.82-2.71,4.43-2.71a1.68,1.68,0,0,1,1.28.52,1.71,1.71,0,0,1,.5,1.23,4.27,4.27,0,0,1-1.59,3.1,20.24,20.24,0,0,1-4.23,2.9.85.85,0,0,0-.55.73,1.93,1.93,0,0,0,.51,1.4,2,2,0,0,0,1.49.52q2.25,0,4.6-2.49c.23-.24.4-.35.52-.35S27.34,15.62,27.34,16Zm-7.29-1.63q4.45-2.64,4.45-4.25c0-.42-.19-.62-.57-.62a3.21,3.21,0,0,0-2.17,1.41A8.16,8.16,0,0,0,20.05,14.34Z"/><path d="M33.79,9c.72,0,1.4-.12,2-.2a14.46,14.46,0,0,1,1.57-.1,2.28,2.28,0,0,1,1,.14.62.62,0,0,1,.2.52c0,.56-.39.87-1.18.92-1,.06-2,.15-2.8.26a4.77,4.77,0,0,0-1.38.28,22.1,22.1,0,0,0-.63,2.49,18.79,18.79,0,0,0-.54,3.1,2.7,2.7,0,0,0,.31,1.54,1.11,1.11,0,0,0,.91.38,4.64,4.64,0,0,0,2.51-1.35,1.77,1.77,0,0,1,.95-.56q.45,0,.45.48c0,.51-.48,1.16-1.45,2a4.65,4.65,0,0,1-3,1.2c-1.69,0-2.54-1-2.54-3a17.2,17.2,0,0,1,.52-3.34A18.88,18.88,0,0,0,31.29,11c0-.1-.09-.15-.25-.15L30,10.91c-.9,0-1.34-.35-1.34-1.07a.53.53,0,0,1,.61-.6h2.16a.5.5,0,0,0,.39-.2,5.13,5.13,0,0,0,.49-1.34c.22-.76.41-1.51.58-2.25s.5-1.1,1-1.1a.85.85,0,0,1,.7.32,1,1,0,0,1,.25.58,14.54,14.54,0,0,1-.38,1.5Z"/><path d="M48.49,19.41,48,19.16a5.56,5.56,0,0,0-2.49-.46,22.05,22.05,0,0,0-3,.35,5.71,5.71,0,0,0-2.9,1.07,1.67,1.67,0,0,1-1.13.48,1.84,1.84,0,0,1-.72-.19.65.65,0,0,1-.43-.52c.33-.36.78-.83,1.36-1.42a94.89,94.89,0,0,0,7.19-8c0-.06-.14-.09-.33-.09a22.74,22.74,0,0,0-2.37.26,11.6,11.6,0,0,1-1.7.13c-1.43,0-2.15-.38-2.15-1.13,0-.58.32-.86,1-.86a.6.6,0,0,1,.2,0,4.71,4.71,0,0,0,1.82.31,24.16,24.16,0,0,0,3.2-.23l.42-.06a4.52,4.52,0,0,0,.53-.09,6,6,0,0,1,1-.1,1.52,1.52,0,0,1,.72.19.54.54,0,0,1,.32.61v0q-.23.92-5.54,6.58a10.6,10.6,0,0,0-1.37,1.63c0,.06.09.1.2.1s.59-.09,1.47-.28A19.24,19.24,0,0,1,46.89,17c1.34,0,2,.41,2,1.22A1.59,1.59,0,0,1,48.49,19.41Z"/><path d="M54.64,9c.72,0,1.4-.12,2-.2a14.62,14.62,0,0,1,1.58-.1,2.22,2.22,0,0,1,1,.14.59.59,0,0,1,.21.52c0,.56-.39.87-1.18.92-1,.06-2,.15-2.8.26a4.77,4.77,0,0,0-1.38.28,17.8,17.8,0,0,0-.63,2.49,18.79,18.79,0,0,0-.54,3.1,2.62,2.62,0,0,0,.31,1.54,1.09,1.09,0,0,0,.91.38,4.62,4.62,0,0,0,2.5-1.35,1.75,1.75,0,0,1,1-.56q.45,0,.45.48c0,.51-.49,1.16-1.45,2a4.65,4.65,0,0,1-3,1.2c-1.69,0-2.53-1-2.53-3a16.44,16.44,0,0,1,.52-3.34A20.57,20.57,0,0,0,52.14,11c0-.1-.09-.15-.26-.15l-1.09.09c-.89,0-1.34-.35-1.34-1.07a.54.54,0,0,1,.62-.6h2.16a.5.5,0,0,0,.39-.2,5.56,5.56,0,0,0,.49-1.34c.22-.76.41-1.51.58-2.25s.49-1.1,1-1.1a.84.84,0,0,1,.7.32,1,1,0,0,1,.26.58,14.54,14.54,0,0,1-.38,1.5Z"/><path d="M74.15,12.8c.38.27,1.22.91,2.51,1.93s2.4,1.84,3.11,2.32a6.28,6.28,0,0,0,1.53.84A8.69,8.69,0,0,0,83,18.1a1.15,1.15,0,0,1,0,.33,1.49,1.49,0,0,1-.35,1,1.23,1.23,0,0,1-1,.37,3.31,3.31,0,0,1-1.45-.44,28.75,28.75,0,0,1-3.1-2.14l-2.39-1.81A10.39,10.39,0,0,0,72.47,14a.9.9,0,0,0-.64.28A5.3,5.3,0,0,0,71.37,16a12.75,12.75,0,0,0-.14,1.56c-.1,1.93-.49,2.89-1.19,2.89a.82.82,0,0,1-.65-.27,1,1,0,0,1-.24-.68,3.88,3.88,0,0,1,.13-.86c.21-.86.5-3.38.87-7.54.13-1.28.29-2.57.47-3.86a16.45,16.45,0,0,1,.43-2.29,1.17,1.17,0,0,1,.39-.53.84.84,0,0,1,.46-.17c.65,0,1,.4,1,1.19A32.75,32.75,0,0,0,72,10.92c0,.54-.09,1.08-.16,1.61v.07s0,0,.11,0a6.23,6.23,0,0,0,.67-.46c.37-.27.78-.59,1.21-1a10.6,10.6,0,0,0,1-1,6.39,6.39,0,0,1,.64-.64c.86-.78,1.51-1.39,1.92-1.84A9.44,9.44,0,0,0,78.57,6.1c.51-.89.87-1.34,1.1-1.34a1.12,1.12,0,0,1,.76.39,1.12,1.12,0,0,1,.4.78q0,1-3.18,3.8c-.47.4-.77.67-.91.8S75.64,11.51,74.15,12.8Z"/><path d="M87.11,15.37c.07-.13.15-.3.25-.53a19,19,0,0,1,1.31-2.56A17.42,17.42,0,0,1,90,10.5,8.67,8.67,0,0,1,91.3,9.21a4.46,4.46,0,0,1,1.07-.61,2.86,2.86,0,0,1,.93-.17A2,2,0,0,1,94.79,9a1.69,1.69,0,0,1,.58,1.28,1,1,0,0,1-.2.59.77.77,0,0,1-.63.26,1.11,1.11,0,0,1-.81-.39,1.07,1.07,0,0,0-.78-.38c-.73,0-1.73.88-3,2.64a12.46,12.46,0,0,0-2.35,5.81,1.72,1.72,0,0,1-.4,1.08,1.16,1.16,0,0,1-.82.26c-.35,0-.59-.25-.75-.76a10.2,10.2,0,0,1-.23-2.58c0-.33,0-1,.05-2.17a27.81,27.81,0,0,1,.26-3.19c0-.14,0-.45.1-.94A5.84,5.84,0,0,1,86,9.37a1.5,1.5,0,0,1,.45-.59,1.19,1.19,0,0,1,.74-.27.67.67,0,0,1,.58.25.83.83,0,0,1,.2.53,4.62,4.62,0,0,1-.21,1.15,7.93,7.93,0,0,0-.28,1.14,7.27,7.27,0,0,1-.12.75,19.77,19.77,0,0,0-.21,2.37v.67Z"/><path d="M103.67,15.83a18.1,18.1,0,0,1-3.39,2.43A5.39,5.39,0,0,1,98,19a1.77,1.77,0,0,1-1.59-.86,3.75,3.75,0,0,1-.55-2,15.49,15.49,0,0,1,.66-4,13.4,13.4,0,0,1,1-2.82,1.21,1.21,0,0,1,1-.44.55.55,0,0,1,.48.35,1.67,1.67,0,0,1,.19.78,1.46,1.46,0,0,1-.24.68c-.38.66-.58,1-.6,1.09s-.15.49-.4,1.27a7,7,0,0,0-.38,2.17,5.32,5.32,0,0,0,.18,1.11c.11.5.35.76.71.76a3.74,3.74,0,0,0,1.42-.36,8.83,8.83,0,0,0,1.91-1.14,7.38,7.38,0,0,0,1.42-1.29,3,3,0,0,0,.52-1.12,18.1,18.1,0,0,0,.22-2.73c0-1.4.38-2.09,1-2.09.38,0,.62.09.74.29a2.67,2.67,0,0,1,.16,1.14c0,.46,0,1-.09,1.73-.08.87-.13,1.5-.15,1.87a38.58,38.58,0,0,1-.75,5.79,15.77,15.77,0,0,1-1.75,4.86A3.55,3.55,0,0,1,100,26a6.34,6.34,0,0,1-3.65-1.07c-1.07-.72-1.6-1.32-1.6-1.82a1.51,1.51,0,0,1,.16-.68c.11-.22.25-.34.42-.34s.17.07.27.2A4.76,4.76,0,0,0,99.9,24.4q1.51,0,2.55-2.67a15.78,15.78,0,0,0,1.14-5C103.6,16.43,103.63,16.13,103.67,15.83Z"/><path d="M110.63,18.31a43.07,43.07,0,0,0-1,5.29l-.3,2a1.94,1.94,0,0,1-.39.84c-.21.27-.4.41-.57.41a1.23,1.23,0,0,1-.74-.33c-.28-.22-.42-.39-.42-.53a6.68,6.68,0,0,1,.27-1.59,57.48,57.48,0,0,0,1.92-13.6l0-.88a2.54,2.54,0,0,1,.4-1.65,1.23,1.23,0,0,1,1-.51c.16,0,.33.13.48.39a2.26,2.26,0,0,1,.23,1.12,17.69,17.69,0,0,1-.21,2.46c-.18,1.21-.28,1.91-.28,2.09a16.47,16.47,0,0,1,3.31-4.25A5.15,5.15,0,0,1,117.57,8a2.31,2.31,0,0,1,1.78.79,2.78,2.78,0,0,1,.73,2,8.85,8.85,0,0,1-2.62,6.2q-2.61,2.79-5.1,2.79a1.44,1.44,0,0,1-1-.32A3.59,3.59,0,0,1,110.63,18.31Zm6.51-8.44c-1,0-2.21.93-3.66,2.77S111.3,15.92,111.3,17a1,1,0,0,0,.43.73,1.65,1.65,0,0,0,1.09.36q1.5,0,3.45-2.22a6.69,6.69,0,0,0,2-4.35,2,2,0,0,0-.31-1.18A.93.93,0,0,0,117.14,9.87Z"/><path d="M126.75,9c.72,0,1.4-.12,2-.2a14.61,14.61,0,0,1,1.57-.1,2.25,2.25,0,0,1,1,.14.59.59,0,0,1,.21.52c0,.56-.39.87-1.18.92-1,.06-1.95.15-2.8.26a4.77,4.77,0,0,0-1.38.28,17.8,17.8,0,0,0-.63,2.49,18.79,18.79,0,0,0-.54,3.1,2.62,2.62,0,0,0,.31,1.54,1.09,1.09,0,0,0,.91.38,4.62,4.62,0,0,0,2.5-1.35,1.75,1.75,0,0,1,1-.56q.45,0,.45.48c0,.51-.49,1.16-1.46,2a4.61,4.61,0,0,1-3,1.2c-1.69,0-2.53-1-2.53-3a16.44,16.44,0,0,1,.52-3.34,19.75,19.75,0,0,0,.51-2.71c0-.1-.08-.15-.25-.15l-1.09.09c-.89,0-1.34-.35-1.34-1.07a.54.54,0,0,1,.62-.6h2.16a.52.52,0,0,0,.39-.2,5.56,5.56,0,0,0,.49-1.34c.22-.76.41-1.51.58-2.25s.49-1.1,1-1.1a.84.84,0,0,1,.7.32.94.94,0,0,1,.25.58,13,13,0,0,1-.37,1.5Z"/><path d="M135.61,20.05A3,3,0,0,1,133.24,19a4,4,0,0,1-.94-2.69,9.28,9.28,0,0,1,1.82-5.33,5.27,5.27,0,0,1,4.36-2.63A3.34,3.34,0,0,1,141.2,9.6a4.77,4.77,0,0,1,1,3.07,7.32,7.32,0,0,1-2.15,5A6.15,6.15,0,0,1,135.61,20.05ZM134.15,16a3.09,3.09,0,0,0,.44,1.72,1.37,1.37,0,0,0,1.18.68,4.43,4.43,0,0,0,3.14-1.72,5.49,5.49,0,0,0,1.57-3.81,3.41,3.41,0,0,0-.6-2.09,1.93,1.93,0,0,0-1.62-.8c-1.13,0-2.09.69-2.9,2.07A7.8,7.8,0,0,0,134.15,16Z"/><path d="M153,12.59c-.19,0-.66.82-1.41,2.44a32.55,32.55,0,0,1-1.89,3.57c-.64,1-1.11,1.57-1.41,1.57q-1.31,0-2.41-3.87a23.6,23.6,0,0,1-1.1-6.22,2,2,0,0,1,.38-1.26,1.25,1.25,0,0,1,.91-.55,1.28,1.28,0,0,1,.26,0,.8.8,0,0,1,.46.34,1,1,0,0,1,.27.65v0c0,.08,0,.43-.11,1a11.18,11.18,0,0,0-.1,1.66,11.49,11.49,0,0,0,.6,3.45c.4,1.26.73,1.89,1,1.89s.84-1.06,1.93-3.19c.7-1.35,1.19-2.28,1.49-2.79l.34-.63a6.15,6.15,0,0,1,1.37-1.9q.9.11.9.9a1.89,1.89,0,0,1,0,.44,1.83,1.83,0,0,0,0,.44,9.47,9.47,0,0,0,1,4.06c.68,1.42,1.15,2.12,1.44,2.12s.54-.74,1-2.22a28.61,28.61,0,0,1,1.7-4.53,6.6,6.6,0,0,1,1.15-1.79A1.29,1.29,0,0,1,161.5,8a.55.55,0,0,1,.45.22.78.78,0,0,1,.18.49.91.91,0,0,1-.11.54,18.62,18.62,0,0,0-2.5,5.33c-.67,2.08-1.14,3.38-1.39,3.91s-.46.8-.63.8a2.61,2.61,0,0,1-2.07-.93,18,18,0,0,1-2.14-4.93C153.18,13.1,153.08,12.83,153,12.59Z"/><path d="M170.67,15.71a12.79,12.79,0,0,1-2.91,3,4.73,4.73,0,0,1-2.63,1,1.75,1.75,0,0,1-1.39-.68,2.59,2.59,0,0,1-.59-1.75,10,10,0,0,1,2.46-5.94q2.47-3.18,4.9-3.18a1.41,1.41,0,0,1,1.31,1,.45.45,0,0,0,.43.33c.56,0,.84.22.84.65a5.38,5.38,0,0,1-.11.9,27.65,27.65,0,0,0-.56,4.36q0,2.53,1,3a.73.73,0,0,1,.46.62.89.89,0,0,1-.45.66,1.48,1.48,0,0,1-.87.33c-.54,0-1-.37-1.33-1.11A7.64,7.64,0,0,1,170.67,15.71ZM170,9.81c-.93,0-2,.87-3.22,2.6a8.12,8.12,0,0,0-1.84,4.3c0,.8.27,1.2.8,1.2.77,0,1.83-.77,3.2-2.32a6.8,6.8,0,0,0,2-4.28C171,10.31,170.68,9.81,170,9.81Zm-1.69-3a2.51,2.51,0,0,1-.7-.15c-.3-.11-.45-.24-.45-.4,0-.87.24-1.31.72-1.31a1.5,1.5,0,0,1,1.07.37,1.3,1.3,0,0,1,.41,1C169.39,6.67,169,6.82,168.34,6.82Zm3.93-.28a1,1,0,0,1-1-.94.82.82,0,0,1,.2-.6,2.83,2.83,0,0,1,1-.39l.16,0a.46.46,0,0,1,.51.15.93.93,0,0,1,.21.66A1,1,0,0,1,172.27,6.54Z"/><path d="M177.92,16.38q3.9-7.2,6.42-7.2a1.24,1.24,0,0,1,1.09.77,10.64,10.64,0,0,1,.68,3.39,8.24,8.24,0,0,0,1.19,4.05,2,2,0,0,1,.47.94.65.65,0,0,1-.31.51,1.15,1.15,0,0,1-.67.23,1.78,1.78,0,0,1-1.45-.92,7,7,0,0,1-.81-3.22,16.62,16.62,0,0,0-.38-2.85c-.13-.45-.35-.68-.66-.68q-1.1,0-4.43,5.76a16.06,16.06,0,0,1-1.47,2.25,1.27,1.27,0,0,1-.86.53,1.16,1.16,0,0,1-.77-.28.85.85,0,0,1-.32-.67,7.6,7.6,0,0,1,.17-1.13q1.29-6.66,2-13.16a4.87,4.87,0,0,1,.54-2c.25-.33.46-.5.63-.5a1.13,1.13,0,0,1,.82.37,1.37,1.37,0,0,1,.36,1,21,21,0,0,1-.94,5.3c-.31,1.11-.63,2.52-1,4.23a24.07,24.07,0,0,0-.51,3.18.11.11,0,0,0,.12.12Z"/><path d="M191.75,15.37a4.59,4.59,0,0,0,.25-.53,20.3,20.3,0,0,1,1.31-2.56,17.42,17.42,0,0,1,1.32-1.78,9.16,9.16,0,0,1,1.31-1.29A4.46,4.46,0,0,1,197,8.6a3,3,0,0,1,.94-.17,2.06,2.06,0,0,1,1.49.55,1.71,1.71,0,0,1,.57,1.28,1,1,0,0,1-.2.59.77.77,0,0,1-.63.26,1.08,1.08,0,0,1-.8-.39,1.09,1.09,0,0,0-.79-.38c-.73,0-1.73.88-3,2.64a12.45,12.45,0,0,0-2.34,5.81,1.78,1.78,0,0,1-.4,1.08,1.2,1.2,0,0,1-.83.26c-.34,0-.59-.25-.75-.76a10.2,10.2,0,0,1-.23-2.58c0-.33,0-1,.06-2.17a26,26,0,0,1,.25-3.19c0-.14,0-.45.1-.94a5,5,0,0,1,.19-1.12,1.33,1.33,0,0,1,.45-.59,1.15,1.15,0,0,1,.74-.27.69.69,0,0,1,.58.25.82.82,0,0,1,.19.53,4.62,4.62,0,0,1-.21,1.15,9.64,9.64,0,0,0-.28,1.14,5.3,5.3,0,0,1-.12.75,19.77,19.77,0,0,0-.21,2.37v.67Z"/><path d="M208.18,15a14.73,14.73,0,0,1-2.75,3.49,4.16,4.16,0,0,1-2.61,1.24,2,2,0,0,1-1.41-.81,3.67,3.67,0,0,1-.72-2.49,18.51,18.51,0,0,1,.66-4,15.44,15.44,0,0,0,.56-3.14,1,1,0,0,1,1-.62.88.88,0,0,1,.71.31,1,1,0,0,1,.26.64,6.25,6.25,0,0,1-.52,2.08,13.39,13.39,0,0,0-1,4.52c0,1.15.26,1.72.8,1.72s1.54-.58,2.58-1.73a14.42,14.42,0,0,0,2.7-4.82,6.94,6.94,0,0,1,.72-1.61.87.87,0,0,1,.75-.37c.47,0,.71.31.71.94a4.9,4.9,0,0,1-.2.77,16.38,16.38,0,0,0-.63,4.34c0,1.63.27,2.69.81,3.17q.42.39.42.63c0,.2-.15.38-.43.54a1.59,1.59,0,0,1-.77.24c-.49,0-.88-.37-1.18-1.09a8.85,8.85,0,0,1-.45-3.22v-.35C208.17,15.2,208.17,15.09,208.18,15Z"/><path d="M221,11.47a1.75,1.75,0,0,0-1.19.71,18.82,18.82,0,0,0-2,3.2,21.1,21.1,0,0,1-2.25,3.79,1.41,1.41,0,0,1-.84.46c-.83,0-1.24-.4-1.24-1.19a8.88,8.88,0,0,1,.17-1.43,37.55,37.55,0,0,0,.58-6.67,1.56,1.56,0,0,1,.34-.89c.22-.33.44-.49.64-.49a.88.88,0,0,1,.78.34,2.67,2.67,0,0,1,.23,1.35,29.79,29.79,0,0,1-.63,4.36,10.36,10.36,0,0,0-.21,1.38c0,.11,0,.17.08.17a11.72,11.72,0,0,0,1.46-2.5,16.06,16.06,0,0,1,2.3-3.59,2.94,2.94,0,0,1,2.16-1,1.8,1.8,0,0,1,1.54.86,7.76,7.76,0,0,1,.87,3.14,19.32,19.32,0,0,0,.52,3.22q.24.63.75.63a1.93,1.93,0,0,0,.82-.23l.13,0c.3,0,.45.18.45.53a1.43,1.43,0,0,1-.62,1,2.27,2.27,0,0,1-1.49.52,1.6,1.6,0,0,1-1.38-.71,10.32,10.32,0,0,1-.77-3.78C222.05,12.49,221.63,11.47,221,11.47Z"/><path d="M235.51,15.73c-.08-.06-.32.14-.7.59a9.41,9.41,0,0,1-2.44,2,5.49,5.49,0,0,1-2.75.87,1.91,1.91,0,0,1-1.48-.59,2.39,2.39,0,0,1-.53-1.64,7.14,7.14,0,0,1,1.22-3.62,11.53,11.53,0,0,1,3.44-3.49,7.26,7.26,0,0,1,3.86-1.49,2.43,2.43,0,0,1,1.53.51l.27.21a1.18,1.18,0,0,1,.36.55,1.93,1.93,0,0,1,.17.66,1.6,1.6,0,0,1-.12.49,20.48,20.48,0,0,0-.87,2.88c-.15.76-.32,2-.5,3.84a33.86,33.86,0,0,1-.55,3.75,7.72,7.72,0,0,1-1.06,2.53,5.28,5.28,0,0,1-1.83,1.84,4.36,4.36,0,0,1-2.2.61,6.64,6.64,0,0,1-3.87-1.35c-1.27-.9-1.91-1.62-1.91-2.17q0-.51.39-.51a3.92,3.92,0,0,1,1.12.62,8.22,8.22,0,0,0,4.44,1.64,2.82,2.82,0,0,0,2.61-1.83,16.1,16.1,0,0,0,1.22-5.48Q235.4,16.31,235.51,15.73Zm0-5.75a4.3,4.3,0,0,0-2.23.92,10.91,10.91,0,0,0-2.59,2.71,5.56,5.56,0,0,0-1.26,3,.84.84,0,0,0,.83.88,5,5,0,0,0,2.44-1,8.64,8.64,0,0,0,2.59-2.68,5.66,5.66,0,0,0,1.08-2.69C236.35,10.37,236.06,10,235.49,10Z"/><path d="M249.4,16q0,1.08-1.89,2.58a6.2,6.2,0,0,1-3.91,1.51,3.37,3.37,0,0,1-2.6-1,4,4,0,0,1-.92-2.78,9.41,9.41,0,0,1,2-5.7q2-2.72,4.43-2.71a1.68,1.68,0,0,1,1.28.52,1.71,1.71,0,0,1,.5,1.23,4.29,4.29,0,0,1-1.58,3.1,20.61,20.61,0,0,1-4.24,2.9.83.83,0,0,0-.54.73,1.92,1.92,0,0,0,.5,1.4,2,2,0,0,0,1.49.52q2.25,0,4.6-2.49c.23-.24.4-.35.52-.35S249.4,15.62,249.4,16Zm-7.29-1.63q4.45-2.64,4.45-4.25c0-.42-.19-.62-.57-.62a3.21,3.21,0,0,0-2.17,1.41A8.16,8.16,0,0,0,242.11,14.34Z"/><path d="M258.73,11.47a1.75,1.75,0,0,0-1.19.71,18.82,18.82,0,0,0-2,3.2,21.1,21.1,0,0,1-2.25,3.79,1.41,1.41,0,0,1-.84.46,1.08,1.08,0,0,1-1.24-1.19,8.88,8.88,0,0,1,.17-1.43,36.64,36.64,0,0,0,.58-6.67,1.56,1.56,0,0,1,.34-.89c.23-.33.44-.49.64-.49a.87.87,0,0,1,.78.34,2.67,2.67,0,0,1,.23,1.35,29.79,29.79,0,0,1-.63,4.36,10.36,10.36,0,0,0-.21,1.38c0,.11,0,.17.08.17a11.72,11.72,0,0,0,1.46-2.5,16.06,16.06,0,0,1,2.3-3.59,3,3,0,0,1,2.17-1,1.8,1.8,0,0,1,1.53.86,7.6,7.6,0,0,1,.87,3.14,17.88,17.88,0,0,0,.53,3.22q.23.63.75.63a1.94,1.94,0,0,0,.81-.23l.13,0c.3,0,.45.18.45.53a1.43,1.43,0,0,1-.62,1,2.27,2.27,0,0,1-1.49.52,1.6,1.6,0,0,1-1.38-.71,10.32,10.32,0,0,1-.77-3.78C259.77,12.49,259.36,11.47,258.73,11.47Z"/><path d="M7.51,42.14q3.9-7.2,6.42-7.2a1.24,1.24,0,0,1,1.09.77,10.64,10.64,0,0,1,.68,3.39,8.24,8.24,0,0,0,1.19,4,2,2,0,0,1,.47.94.64.64,0,0,1-.32.5,1.07,1.07,0,0,1-.67.23,1.76,1.76,0,0,1-1.44-.91,7,7,0,0,1-.81-3.23,17,17,0,0,0-.38-2.85c-.13-.44-.35-.67-.66-.67q-1.1,0-4.43,5.76a16.06,16.06,0,0,1-1.47,2.25,1.25,1.25,0,0,1-.86.52,1.15,1.15,0,0,1-.77-.27.85.85,0,0,1-.32-.67,7.42,7.42,0,0,1,.17-1.13q1.29-6.66,2-13.17a4.86,4.86,0,0,1,.54-2c.25-.33.46-.5.63-.5a1.12,1.12,0,0,1,.81.36,1.38,1.38,0,0,1,.37,1,20.83,20.83,0,0,1-.94,5.29c-.31,1.12-.63,2.53-1,4.24A24.29,24.29,0,0,0,7.35,42c0,.09,0,.13.11.13Z"/><path d="M26.29,41.47a13.19,13.19,0,0,1-2.9,3,4.83,4.83,0,0,1-2.64,1,1.8,1.8,0,0,1-1.39-.68A2.59,2.59,0,0,1,18.77,43,9.91,9.91,0,0,1,21.24,37q2.46-3.18,4.89-3.18a1.4,1.4,0,0,1,1.31,1,.46.46,0,0,0,.43.33c.56,0,.84.22.84.65a5.17,5.17,0,0,1-.11.89A29.09,29.09,0,0,0,28,41.1c0,1.69.32,2.71,1,3a.73.73,0,0,1,.46.62.89.89,0,0,1-.45.66,1.48,1.48,0,0,1-.87.33c-.53,0-1-.37-1.33-1.11A7.67,7.67,0,0,1,26.29,41.47Zm-.64-5.9c-.92,0-2,.86-3.22,2.59a8.15,8.15,0,0,0-1.83,4.31c0,.8.26,1.2.79,1.2.77,0,1.84-.77,3.2-2.33a6.78,6.78,0,0,0,2-4.27C26.63,36.07,26.31,35.57,25.65,35.57Z"/><path d="M39,37.23a1.73,1.73,0,0,0-1.19.71,18.76,18.76,0,0,0-2,3.19,21,21,0,0,1-2.25,3.8,1.41,1.41,0,0,1-.85.46,1.07,1.07,0,0,1-1.23-1.19,7.77,7.77,0,0,1,.17-1.43,37.68,37.68,0,0,0,.57-6.68,1.56,1.56,0,0,1,.34-.88c.23-.33.44-.49.65-.49a.85.85,0,0,1,.77.34,2.56,2.56,0,0,1,.23,1.35,30,30,0,0,1-.63,4.36,10.13,10.13,0,0,0-.21,1.38c0,.11,0,.17.09.17a12.59,12.59,0,0,0,1.46-2.51,16.23,16.23,0,0,1,2.29-3.58,3,3,0,0,1,2.17-1,1.81,1.81,0,0,1,1.54.86,7.58,7.58,0,0,1,.86,3.14,18.9,18.9,0,0,0,.53,3.22q.24.63.75.63a1.93,1.93,0,0,0,.82-.23.24.24,0,0,1,.12,0c.3,0,.45.17.45.52a1.35,1.35,0,0,1-.62,1,2.19,2.19,0,0,1-1.48.52A1.55,1.55,0,0,1,41,44.08a10.09,10.09,0,0,1-.77-3.77C40,38.25,39.59,37.23,39,37.23Z"/><path d="M53.57,41a13.11,13.11,0,0,1-3,3.47,4.87,4.87,0,0,1-2.89,1.22,1.92,1.92,0,0,1-1.61-.78,3.38,3.38,0,0,1-.59-2.08,9,9,0,0,1,2.15-5.44q2.16-2.79,4.65-2.79a2.82,2.82,0,0,1,2,.94l1.46-6.86a1.36,1.36,0,0,1,.58-.94,1.55,1.55,0,0,1,.67-.24c.49,0,.73.43.73,1.3a11.14,11.14,0,0,1-.48,1.71,51.13,51.13,0,0,0-1.45,5.67,28.26,28.26,0,0,0-.69,5.39c0,1.4.31,2.1.92,2.1a2.3,2.3,0,0,0,1.21-.39.92.92,0,0,1,.49-.19c.23,0,.34.15.34.44s-.31.77-.94,1.24a3.16,3.16,0,0,1-1.92.7c-1.15,0-1.73-1.11-1.73-3.33C53.52,41.71,53.54,41.33,53.57,41ZM52.2,36c-1.13,0-2.26.77-3.37,2.3a7.43,7.43,0,0,0-1.66,4.25c0,.87.29,1.31.87,1.31A3.56,3.56,0,0,0,50,43a10.56,10.56,0,0,0,2.41-2.74,6.11,6.11,0,0,0,1.24-2.82,1.48,1.48,0,0,0-.43-.95A1.31,1.31,0,0,0,52.2,36Z"/><path d="M69.22,41.73q0,1.07-1.89,2.58a6.2,6.2,0,0,1-3.91,1.51,3.34,3.34,0,0,1-2.6-1,3.94,3.94,0,0,1-.92-2.77,9.46,9.46,0,0,1,2-5.71q2-2.7,4.43-2.7a1.71,1.71,0,0,1,1.28.51,1.75,1.75,0,0,1,.5,1.24,4.25,4.25,0,0,1-1.58,3.09,20.22,20.22,0,0,1-4.24,2.91.83.83,0,0,0-.54.73,1.94,1.94,0,0,0,.5,1.39,2,2,0,0,0,1.49.53q2.25,0,4.6-2.5c.23-.23.41-.34.52-.34S69.22,41.38,69.22,41.73ZM61.94,40.1q4.44-2.64,4.44-4.25,0-.63-.57-.63c-.64,0-1.36.48-2.17,1.42A8,8,0,0,0,61.94,40.1Z"/><path d="M75.08,27.54q.75,0,.75,1a21,21,0,0,1-.91,4.09A31.57,31.57,0,0,0,74,37.08a31.89,31.89,0,0,0-.31,3.84,26.26,26.26,0,0,0,.22,3.44c0,.22,0,.38,0,.47a1.29,1.29,0,0,1-.36.91,1,1,0,0,1-.75.37c-.37,0-.63-.23-.77-.69a7.92,7.92,0,0,1-.22-2.23,55.09,55.09,0,0,1,.85-8.7c.56-3.46,1-5.48,1.34-6.07S74.74,27.54,75.08,27.54Z"/><path d="M84.69,37.23a1.73,1.73,0,0,0-1.19.71,19.27,19.27,0,0,0-2,3.19,21.9,21.9,0,0,1-2.24,3.8,1.41,1.41,0,0,1-.85.46,1.07,1.07,0,0,1-1.23-1.19,8.53,8.53,0,0,1,.16-1.43A36.75,36.75,0,0,0,78,36.09a1.56,1.56,0,0,1,.34-.88c.23-.33.44-.49.65-.49a.85.85,0,0,1,.77.34,2.67,2.67,0,0,1,.23,1.35,30,30,0,0,1-.63,4.36,10.13,10.13,0,0,0-.21,1.38c0,.11,0,.17.09.17a12.32,12.32,0,0,0,1.45-2.51,16.57,16.57,0,0,1,2.3-3.58,3,3,0,0,1,2.17-1,1.78,1.78,0,0,1,1.53.86,7.4,7.4,0,0,1,.87,3.14A17.88,17.88,0,0,0,88,42.41c.16.42.4.63.75.63a1.9,1.9,0,0,0,.81-.23.3.3,0,0,1,.13,0c.3,0,.45.17.45.52a1.35,1.35,0,0,1-.62,1,2.22,2.22,0,0,1-1.49.52,1.55,1.55,0,0,1-1.37-.71,9.88,9.88,0,0,1-.77-3.77C85.73,38.25,85.32,37.23,84.69,37.23Z"/></g><path class="cls-3" d="M14.05,2.7a.85.85,0,0,1,.58.23.66.66,0,0,1,.26.52,51.52,51.52,0,0,1-.6,6.83,16.22,16.22,0,0,1-1.93,6.33,4.1,4.1,0,0,1-3.6,2.05,6.49,6.49,0,0,1-3.6-1.26c-1.25-.85-1.87-1.57-1.87-2.15s.35-.93,1-.93c.21,0,.52.2.91.58a5.35,5.35,0,0,0,3.55,1.94,2.61,2.61,0,0,0,2.29-1.51,15.2,15.2,0,0,0,1.41-5.08A44.64,44.64,0,0,0,13,3.57a.77.77,0,0,1,.34-.6A1.12,1.12,0,0,1,14.05,2.7Z"/><path class="cls-3" d="M26.34,15q0,1.08-1.89,2.58a6.22,6.22,0,0,1-3.91,1.51,3.37,3.37,0,0,1-2.6-1A3.92,3.92,0,0,1,17,15.29a9.34,9.34,0,0,1,2-5.7c1.35-1.81,2.82-2.71,4.43-2.71a1.68,1.68,0,0,1,1.28.52,1.71,1.71,0,0,1,.5,1.23,4.27,4.27,0,0,1-1.59,3.1,20.24,20.24,0,0,1-4.23,2.9.85.85,0,0,0-.55.73,1.93,1.93,0,0,0,.51,1.4,2,2,0,0,0,1.49.52q2.25,0,4.6-2.49c.23-.24.4-.35.52-.35S26.34,14.62,26.34,15Zm-7.29-1.63q4.45-2.64,4.45-4.25c0-.42-.19-.62-.57-.62a3.21,3.21,0,0,0-2.17,1.41A8.16,8.16,0,0,0,19.05,13.34Z"/><path class="cls-3" d="M32.79,8c.72,0,1.4-.12,2-.2a14.46,14.46,0,0,1,1.57-.1,2.28,2.28,0,0,1,1,.14.62.62,0,0,1,.2.52c0,.56-.39.87-1.18.92-1,.06-2,.15-2.8.26a4.77,4.77,0,0,0-1.38.28,22.1,22.1,0,0,0-.63,2.49,18.79,18.79,0,0,0-.54,3.1,2.7,2.7,0,0,0,.31,1.54,1.11,1.11,0,0,0,.91.38,4.64,4.64,0,0,0,2.51-1.35,1.77,1.77,0,0,1,.95-.56q.45,0,.45.48c0,.51-.48,1.16-1.45,2a4.65,4.65,0,0,1-3,1.2c-1.69,0-2.54-1-2.54-3a17.2,17.2,0,0,1,.52-3.34A18.88,18.88,0,0,0,30.29,10c0-.1-.09-.15-.25-.15L29,9.91c-.9,0-1.34-.35-1.34-1.07a.53.53,0,0,1,.61-.6h2.16a.5.5,0,0,0,.39-.2,5.13,5.13,0,0,0,.49-1.34c.22-.76.41-1.51.58-2.25s.5-1.1,1-1.1a.85.85,0,0,1,.7.32,1,1,0,0,1,.25.58,14.54,14.54,0,0,1-.38,1.5Z"/><path class="cls-3" d="M47.49,18.41,47,18.16a5.56,5.56,0,0,0-2.49-.46,22.05,22.05,0,0,0-3,.35,5.71,5.71,0,0,0-2.9,1.07,1.67,1.67,0,0,1-1.13.48,1.84,1.84,0,0,1-.72-.19.65.65,0,0,1-.43-.52c.33-.36.78-.83,1.36-1.42a94.89,94.89,0,0,0,7.19-8c0-.06-.14-.09-.33-.09a22.74,22.74,0,0,0-2.37.26,11.6,11.6,0,0,1-1.7.13c-1.43,0-2.15-.38-2.15-1.13,0-.58.32-.86,1-.86a.6.6,0,0,1,.2.05,4.71,4.71,0,0,0,1.82.31,24.16,24.16,0,0,0,3.2-.23l.42-.06a4.52,4.52,0,0,0,.53-.09,6,6,0,0,1,1-.1,1.52,1.52,0,0,1,.72.19.54.54,0,0,1,.32.61v0q-.23.92-5.54,6.58a10.6,10.6,0,0,0-1.37,1.63c0,.06.09.1.2.1s.59-.09,1.47-.28A19.24,19.24,0,0,1,45.89,16c1.34,0,2,.41,2,1.22A1.59,1.59,0,0,1,47.49,18.41Z"/><path class="cls-3" d="M53.64,8c.72,0,1.4-.12,2-.2a14.62,14.62,0,0,1,1.58-.1,2.22,2.22,0,0,1,1,.14.59.59,0,0,1,.21.52c0,.56-.39.87-1.18.92-1,.06-2,.15-2.8.26a4.77,4.77,0,0,0-1.38.28,17.8,17.8,0,0,0-.63,2.49,18.79,18.79,0,0,0-.54,3.1,2.62,2.62,0,0,0,.31,1.54,1.09,1.09,0,0,0,.91.38,4.62,4.62,0,0,0,2.5-1.35,1.75,1.75,0,0,1,1-.56q.45,0,.45.48c0,.51-.49,1.16-1.45,2a4.65,4.65,0,0,1-3,1.2c-1.69,0-2.53-1-2.53-3a16.44,16.44,0,0,1,.52-3.34A20.57,20.57,0,0,0,51.14,10c0-.1-.09-.15-.26-.15l-1.09.09c-.89,0-1.34-.35-1.34-1.07a.54.54,0,0,1,.62-.6h2.16a.5.5,0,0,0,.39-.2,5.56,5.56,0,0,0,.49-1.34c.22-.76.41-1.51.58-2.25s.49-1.1,1-1.1a.84.84,0,0,1,.7.32,1,1,0,0,1,.26.58,14.54,14.54,0,0,1-.38,1.5Z"/><path class="cls-3" d="M73.15,11.8c.38.27,1.22.91,2.51,1.93s2.4,1.84,3.11,2.32a6.28,6.28,0,0,0,1.53.84A8.69,8.69,0,0,0,82,17.1a1.15,1.15,0,0,1,0,.33,1.49,1.49,0,0,1-.35,1,1.23,1.23,0,0,1-1,.37,3.31,3.31,0,0,1-1.45-.44,28.75,28.75,0,0,1-3.1-2.14l-2.39-1.81A10.39,10.39,0,0,0,71.47,13a.9.9,0,0,0-.64.28A5.3,5.3,0,0,0,70.37,15a12.75,12.75,0,0,0-.14,1.56c-.1,1.93-.49,2.89-1.19,2.89a.82.82,0,0,1-.65-.27,1,1,0,0,1-.24-.68,3.88,3.88,0,0,1,.13-.86c.21-.86.5-3.38.87-7.54.13-1.28.29-2.57.47-3.86a16.45,16.45,0,0,1,.43-2.29,1.17,1.17,0,0,1,.39-.53.84.84,0,0,1,.46-.17c.65,0,1,.4,1,1.19A32.75,32.75,0,0,0,71,9.92c0,.54-.09,1.08-.16,1.61v.07s0,0,.11,0a6.23,6.23,0,0,0,.67-.46c.37-.27.78-.59,1.21-1a10.6,10.6,0,0,0,1-1,6.39,6.39,0,0,1,.64-.64c.86-.78,1.51-1.39,1.92-1.84A9.44,9.44,0,0,0,77.57,5.1c.51-.89.87-1.34,1.1-1.34a1.12,1.12,0,0,1,.76.39,1.12,1.12,0,0,1,.4.78q0,1-3.18,3.8c-.47.4-.77.67-.91.8S74.64,10.51,73.15,11.8Z"/><path class="cls-3" d="M86.11,14.37c.07-.13.15-.3.25-.53a19,19,0,0,1,1.31-2.56A17.42,17.42,0,0,1,89,9.5,8.67,8.67,0,0,1,90.3,8.21a4.46,4.46,0,0,1,1.07-.61,2.86,2.86,0,0,1,.93-.17A2,2,0,0,1,93.79,8a1.69,1.69,0,0,1,.58,1.28,1,1,0,0,1-.2.59.77.77,0,0,1-.63.26,1.11,1.11,0,0,1-.81-.39A1.07,1.07,0,0,0,92,9.34c-.73,0-1.73.88-3,2.64a12.46,12.46,0,0,0-2.35,5.81,1.72,1.72,0,0,1-.4,1.08,1.16,1.16,0,0,1-.82.26c-.35,0-.59-.25-.75-.76a10.2,10.2,0,0,1-.23-2.58c0-.33,0-1,.05-2.17a27.81,27.81,0,0,1,.26-3.19c0-.14,0-.45.1-.94A5.84,5.84,0,0,1,85,8.37a1.5,1.5,0,0,1,.45-.59,1.19,1.19,0,0,1,.74-.27.67.67,0,0,1,.58.25.83.83,0,0,1,.2.53,4.62,4.62,0,0,1-.21,1.15,7.93,7.93,0,0,0-.28,1.14,7.27,7.27,0,0,1-.12.75,19.77,19.77,0,0,0-.21,2.37v.67Z"/><path class="cls-3" d="M102.67,14.83a18.1,18.1,0,0,1-3.39,2.43A5.39,5.39,0,0,1,97,18a1.77,1.77,0,0,1-1.59-.86,3.75,3.75,0,0,1-.55-2,15.49,15.49,0,0,1,.66-4,13.4,13.4,0,0,1,1-2.82,1.21,1.21,0,0,1,1-.44.55.55,0,0,1,.48.35,1.67,1.67,0,0,1,.19.78A1.46,1.46,0,0,1,98,9.7c-.38.66-.58,1-.6,1.09s-.15.49-.4,1.27a7,7,0,0,0-.38,2.17,5.32,5.32,0,0,0,.18,1.11c.11.5.35.76.71.76a3.74,3.74,0,0,0,1.42-.36,8.83,8.83,0,0,0,1.91-1.14,7.38,7.38,0,0,0,1.42-1.29,3,3,0,0,0,.52-1.12A18.1,18.1,0,0,0,103,9.46c0-1.4.38-2.09,1-2.09.38,0,.62.09.74.29a2.67,2.67,0,0,1,.16,1.14c0,.46,0,1-.09,1.73-.08.87-.13,1.5-.15,1.87a38.58,38.58,0,0,1-.75,5.79,15.77,15.77,0,0,1-1.75,4.86A3.55,3.55,0,0,1,99,25a6.34,6.34,0,0,1-3.65-1.07c-1.07-.72-1.6-1.32-1.6-1.82a1.51,1.51,0,0,1,.16-.68c.11-.22.25-.34.42-.34s.17.07.27.2A4.76,4.76,0,0,0,98.9,23.4q1.51,0,2.55-2.67a15.78,15.78,0,0,0,1.14-5C102.6,15.43,102.63,15.13,102.67,14.83Z"/><path class="cls-3" d="M109.63,17.31a43.07,43.07,0,0,0-1,5.29l-.3,2a1.94,1.94,0,0,1-.39.84c-.21.27-.4.41-.57.41a1.23,1.23,0,0,1-.74-.33c-.28-.22-.42-.39-.42-.53a6.68,6.68,0,0,1,.27-1.59,57.48,57.48,0,0,0,1.92-13.6l0-.88a2.54,2.54,0,0,1,.4-1.65,1.23,1.23,0,0,1,1-.51c.16,0,.33.13.48.39a2.26,2.26,0,0,1,.23,1.12,17.69,17.69,0,0,1-.21,2.46c-.18,1.21-.28,1.91-.28,2.09a16.47,16.47,0,0,1,3.31-4.25A5.15,5.15,0,0,1,116.57,7a2.31,2.31,0,0,1,1.78.79,2.78,2.78,0,0,1,.73,2,8.85,8.85,0,0,1-2.62,6.2q-2.61,2.79-5.1,2.79a1.44,1.44,0,0,1-1-.32A3.59,3.59,0,0,1,109.63,17.31Zm6.51-8.44c-1,0-2.21.93-3.66,2.77S110.3,14.92,110.3,16a1,1,0,0,0,.43.73,1.65,1.65,0,0,0,1.09.36q1.5,0,3.45-2.22a6.69,6.69,0,0,0,2-4.35,2,2,0,0,0-.31-1.18A.93.93,0,0,0,116.14,8.87Z"/><path class="cls-3" d="M125.75,8c.72,0,1.4-.12,2-.2a14.61,14.61,0,0,1,1.57-.1,2.25,2.25,0,0,1,1,.14.59.59,0,0,1,.21.52c0,.56-.39.87-1.18.92-1,.06-1.95.15-2.8.26a4.77,4.77,0,0,0-1.38.28,17.8,17.8,0,0,0-.63,2.49,18.79,18.79,0,0,0-.54,3.1,2.62,2.62,0,0,0,.31,1.54,1.09,1.09,0,0,0,.91.38,4.62,4.62,0,0,0,2.5-1.35,1.75,1.75,0,0,1,1-.56q.45,0,.45.48c0,.51-.49,1.16-1.46,2a4.61,4.61,0,0,1-3,1.2c-1.69,0-2.53-1-2.53-3a16.44,16.44,0,0,1,.52-3.34,19.75,19.75,0,0,0,.51-2.71c0-.1-.08-.15-.25-.15l-1.09.09c-.89,0-1.34-.35-1.34-1.07a.54.54,0,0,1,.62-.6h2.16a.52.52,0,0,0,.39-.2,5.56,5.56,0,0,0,.49-1.34c.22-.76.41-1.51.58-2.25s.49-1.1,1-1.1a.84.84,0,0,1,.7.32.94.94,0,0,1,.25.58,13,13,0,0,1-.37,1.5Z"/><path class="cls-3" d="M134.61,19.05A3,3,0,0,1,132.24,18a4,4,0,0,1-.94-2.69,9.28,9.28,0,0,1,1.82-5.33,5.27,5.27,0,0,1,4.36-2.63A3.34,3.34,0,0,1,140.2,8.6a4.77,4.77,0,0,1,1,3.07,7.32,7.32,0,0,1-2.15,5A6.15,6.15,0,0,1,134.61,19.05ZM133.15,15a3.09,3.09,0,0,0,.44,1.72,1.37,1.37,0,0,0,1.18.68,4.43,4.43,0,0,0,3.14-1.72,5.49,5.49,0,0,0,1.57-3.81,3.41,3.41,0,0,0-.6-2.09,1.93,1.93,0,0,0-1.62-.8c-1.13,0-2.09.69-2.9,2.07A7.8,7.8,0,0,0,133.15,15Z"/><path class="cls-3" d="M152,11.59c-.19,0-.66.82-1.41,2.44a32.55,32.55,0,0,1-1.89,3.57c-.64,1-1.11,1.57-1.41,1.57q-1.31,0-2.41-3.87a23.6,23.6,0,0,1-1.1-6.22,2,2,0,0,1,.38-1.26,1.25,1.25,0,0,1,.91-.55,1.28,1.28,0,0,1,.26,0,.8.8,0,0,1,.46.34,1,1,0,0,1,.27.65v0c0,.08,0,.43-.11,1a11.18,11.18,0,0,0-.1,1.66,11.49,11.49,0,0,0,.6,3.45c.4,1.26.73,1.89,1,1.89s.84-1.06,1.93-3.19c.7-1.35,1.19-2.28,1.49-2.79l.34-.63a6.15,6.15,0,0,1,1.37-1.9q.9.11.9.9a1.89,1.89,0,0,1,0,.44,1.83,1.83,0,0,0,0,.44,9.47,9.47,0,0,0,1,4.06c.68,1.42,1.15,2.12,1.44,2.12s.54-.74,1-2.22a28.61,28.61,0,0,1,1.7-4.53,6.6,6.6,0,0,1,1.15-1.79A1.29,1.29,0,0,1,160.5,7a.55.55,0,0,1,.45.22.78.78,0,0,1,.18.49.91.91,0,0,1-.11.54,18.62,18.62,0,0,0-2.5,5.33c-.67,2.08-1.14,3.38-1.39,3.91s-.46.8-.63.8a2.61,2.61,0,0,1-2.07-.93,18,18,0,0,1-2.14-4.93C152.18,12.1,152.08,11.83,152,11.59Z"/><path class="cls-3" d="M169.67,14.71a12.79,12.79,0,0,1-2.91,3,4.73,4.73,0,0,1-2.63,1,1.75,1.75,0,0,1-1.39-.68,2.59,2.59,0,0,1-.59-1.75,10,10,0,0,1,2.46-5.94q2.47-3.18,4.9-3.18a1.41,1.41,0,0,1,1.31,1,.45.45,0,0,0,.43.33c.56,0,.84.22.84.65a5.38,5.38,0,0,1-.11.9,27.65,27.65,0,0,0-.56,4.36q0,2.53,1,3a.73.73,0,0,1,.46.62.89.89,0,0,1-.45.66,1.48,1.48,0,0,1-.87.33c-.54,0-1-.37-1.33-1.11A7.64,7.64,0,0,1,169.67,14.71ZM169,8.81c-.93,0-2,.87-3.22,2.6a8.12,8.12,0,0,0-1.84,4.3c0,.8.27,1.2.8,1.2.77,0,1.83-.77,3.2-2.32a6.8,6.8,0,0,0,2-4.28C170,9.31,169.68,8.81,169,8.81Zm-1.69-3a2.51,2.51,0,0,1-.7-.15c-.3-.11-.45-.24-.45-.4,0-.87.24-1.31.72-1.31a1.5,1.5,0,0,1,1.07.37,1.3,1.3,0,0,1,.41,1C168.39,5.67,168,5.82,167.34,5.82Zm3.93-.28a1,1,0,0,1-1-.94.82.82,0,0,1,.2-.6,2.83,2.83,0,0,1,1-.39l.16,0a.46.46,0,0,1,.51.15.93.93,0,0,1,.21.66A1,1,0,0,1,171.27,5.54Z"/><path class="cls-3" d="M176.92,15.38q3.9-7.2,6.42-7.2a1.24,1.24,0,0,1,1.09.77,10.64,10.64,0,0,1,.68,3.39,8.24,8.24,0,0,0,1.19,4.05,2,2,0,0,1,.47.94.65.65,0,0,1-.31.51,1.15,1.15,0,0,1-.67.23,1.78,1.78,0,0,1-1.45-.92,7,7,0,0,1-.81-3.22,16.62,16.62,0,0,0-.38-2.85c-.13-.45-.35-.68-.66-.68q-1.1,0-4.43,5.76a16.06,16.06,0,0,1-1.47,2.25,1.27,1.27,0,0,1-.86.53,1.16,1.16,0,0,1-.77-.28.85.85,0,0,1-.32-.67,7.6,7.6,0,0,1,.17-1.13q1.29-6.66,2-13.16a4.87,4.87,0,0,1,.54-2c.25-.33.46-.5.63-.5a1.13,1.13,0,0,1,.82.37,1.37,1.37,0,0,1,.36,1,21,21,0,0,1-.94,5.3c-.31,1.11-.63,2.52-1,4.23a24.07,24.07,0,0,0-.51,3.18.11.11,0,0,0,.12.12Z"/><path class="cls-3" d="M190.75,14.37a4.59,4.59,0,0,0,.25-.53,20.3,20.3,0,0,1,1.31-2.56,17.42,17.42,0,0,1,1.32-1.78,9.16,9.16,0,0,1,1.31-1.29A4.46,4.46,0,0,1,196,7.6a3,3,0,0,1,.94-.17,2.06,2.06,0,0,1,1.49.55A1.71,1.71,0,0,1,199,9.26a1,1,0,0,1-.2.59.77.77,0,0,1-.63.26,1.08,1.08,0,0,1-.8-.39,1.09,1.09,0,0,0-.79-.38c-.73,0-1.73.88-3,2.64a12.45,12.45,0,0,0-2.34,5.81,1.78,1.78,0,0,1-.4,1.08,1.2,1.2,0,0,1-.83.26c-.34,0-.59-.25-.75-.76a10.2,10.2,0,0,1-.23-2.58c0-.33,0-1,.06-2.17a26,26,0,0,1,.25-3.19c0-.14,0-.45.1-.94a5,5,0,0,1,.19-1.12,1.33,1.33,0,0,1,.45-.59,1.15,1.15,0,0,1,.74-.27.69.69,0,0,1,.58.25.82.82,0,0,1,.19.53,4.62,4.62,0,0,1-.21,1.15,9.64,9.64,0,0,0-.28,1.14,5.3,5.3,0,0,1-.12.75,19.77,19.77,0,0,0-.21,2.37v.67Z"/><path class="cls-3" d="M207.18,14a14.73,14.73,0,0,1-2.75,3.49,4.16,4.16,0,0,1-2.61,1.24,2,2,0,0,1-1.41-.81,3.67,3.67,0,0,1-.72-2.49,18.51,18.51,0,0,1,.66-4,15.44,15.44,0,0,0,.56-3.14,1,1,0,0,1,1-.62.88.88,0,0,1,.71.31,1,1,0,0,1,.26.64,6.25,6.25,0,0,1-.52,2.08,13.39,13.39,0,0,0-1,4.52c0,1.15.26,1.72.8,1.72s1.54-.58,2.58-1.73a14.42,14.42,0,0,0,2.7-4.82,6.94,6.94,0,0,1,.72-1.61.87.87,0,0,1,.75-.37c.47,0,.71.31.71.94a4.9,4.9,0,0,1-.2.77,16.38,16.38,0,0,0-.63,4.34c0,1.63.27,2.69.81,3.17q.42.39.42.63c0,.2-.15.38-.43.54a1.59,1.59,0,0,1-.77.24c-.49,0-.88-.37-1.18-1.09a8.85,8.85,0,0,1-.45-3.22v-.35C207.17,14.2,207.17,14.09,207.18,14Z"/><path class="cls-3" d="M220,10.47a1.75,1.75,0,0,0-1.19.71,18.82,18.82,0,0,0-2,3.2,21.1,21.1,0,0,1-2.25,3.79,1.41,1.41,0,0,1-.84.46c-.83,0-1.24-.4-1.24-1.19a8.88,8.88,0,0,1,.17-1.43,37.55,37.55,0,0,0,.58-6.67,1.56,1.56,0,0,1,.34-.89c.22-.33.44-.49.64-.49a.88.88,0,0,1,.78.34,2.67,2.67,0,0,1,.23,1.35,29.79,29.79,0,0,1-.63,4.36,10.36,10.36,0,0,0-.21,1.38c0,.11,0,.17.08.17a11.72,11.72,0,0,0,1.46-2.5,16.06,16.06,0,0,1,2.3-3.59,2.94,2.94,0,0,1,2.16-1,1.8,1.8,0,0,1,1.54.86,7.76,7.76,0,0,1,.87,3.14,19.32,19.32,0,0,0,.52,3.22q.24.63.75.63a1.93,1.93,0,0,0,.82-.23l.13,0c.3,0,.45.18.45.53a1.43,1.43,0,0,1-.62,1,2.27,2.27,0,0,1-1.49.52,1.6,1.6,0,0,1-1.38-.71,10.32,10.32,0,0,1-.77-3.78C221.05,11.49,220.63,10.47,220,10.47Z"/><path class="cls-3" d="M234.51,14.73c-.08-.06-.32.14-.7.59a9.41,9.41,0,0,1-2.44,2,5.49,5.49,0,0,1-2.75.87,1.91,1.91,0,0,1-1.48-.59,2.39,2.39,0,0,1-.53-1.64,7.14,7.14,0,0,1,1.22-3.62,11.53,11.53,0,0,1,3.44-3.49,7.26,7.26,0,0,1,3.86-1.49,2.43,2.43,0,0,1,1.53.51l.27.21a1.18,1.18,0,0,1,.36.55,1.93,1.93,0,0,1,.17.66,1.6,1.6,0,0,1-.12.49,20.48,20.48,0,0,0-.87,2.88c-.15.76-.32,2-.5,3.84a33.86,33.86,0,0,1-.55,3.75,7.72,7.72,0,0,1-1.06,2.53,5.28,5.28,0,0,1-1.83,1.84,4.36,4.36,0,0,1-2.2.61,6.64,6.64,0,0,1-3.87-1.35c-1.27-.9-1.91-1.62-1.91-2.17q0-.51.39-.51a3.92,3.92,0,0,1,1.12.62,8.22,8.22,0,0,0,4.44,1.64,2.82,2.82,0,0,0,2.61-1.83,16.1,16.1,0,0,0,1.22-5.48Q234.4,15.32,234.51,14.73Zm0-5.75a4.3,4.3,0,0,0-2.23.92,10.91,10.91,0,0,0-2.59,2.71,5.56,5.56,0,0,0-1.26,3,.84.84,0,0,0,.83.88,5,5,0,0,0,2.44-1,8.64,8.64,0,0,0,2.59-2.68,5.66,5.66,0,0,0,1.08-2.69C235.35,9.37,235.06,9,234.49,9Z"/><path class="cls-3" d="M248.4,15q0,1.08-1.89,2.58a6.2,6.2,0,0,1-3.91,1.51,3.37,3.37,0,0,1-2.6-1,4,4,0,0,1-.92-2.78,9.41,9.41,0,0,1,2-5.7q2-2.71,4.43-2.71a1.68,1.68,0,0,1,1.28.52,1.71,1.71,0,0,1,.5,1.23,4.29,4.29,0,0,1-1.58,3.1,20.61,20.61,0,0,1-4.24,2.9.83.83,0,0,0-.54.73,1.92,1.92,0,0,0,.5,1.4,2,2,0,0,0,1.49.52q2.25,0,4.6-2.49c.23-.24.4-.35.52-.35S248.4,14.62,248.4,15Zm-7.29-1.63q4.45-2.64,4.45-4.25c0-.42-.19-.62-.57-.62a3.21,3.21,0,0,0-2.17,1.41A8.16,8.16,0,0,0,241.11,13.34Z"/><path class="cls-3" d="M257.73,10.47a1.75,1.75,0,0,0-1.19.71,18.82,18.82,0,0,0-2,3.2,21.1,21.1,0,0,1-2.25,3.79,1.41,1.41,0,0,1-.84.46,1.08,1.08,0,0,1-1.24-1.19,8.88,8.88,0,0,1,.17-1.43A36.64,36.64,0,0,0,251,9.34a1.56,1.56,0,0,1,.34-.89c.23-.33.44-.49.64-.49a.87.87,0,0,1,.78.34A2.67,2.67,0,0,1,253,9.65a29.79,29.79,0,0,1-.63,4.36,10.36,10.36,0,0,0-.21,1.38c0,.11,0,.17.08.17a11.72,11.72,0,0,0,1.46-2.5A16.06,16.06,0,0,1,256,9.47a3,3,0,0,1,2.17-1,1.8,1.8,0,0,1,1.53.86,7.6,7.6,0,0,1,.87,3.14,17.88,17.88,0,0,0,.53,3.22q.23.63.75.63a1.94,1.94,0,0,0,.81-.23l.13,0c.3,0,.45.18.45.53a1.43,1.43,0,0,1-.62,1,2.27,2.27,0,0,1-1.49.52,1.6,1.6,0,0,1-1.38-.71,10.32,10.32,0,0,1-.77-3.78C258.77,11.49,258.36,10.47,257.73,10.47Z"/><path class="cls-3" d="M6.51,41.14q3.9-7.2,6.42-7.2a1.24,1.24,0,0,1,1.09.77,10.64,10.64,0,0,1,.68,3.39,8.24,8.24,0,0,0,1.19,4,2,2,0,0,1,.47.94.64.64,0,0,1-.32.5,1.07,1.07,0,0,1-.67.23,1.76,1.76,0,0,1-1.44-.91,7,7,0,0,1-.81-3.23,17,17,0,0,0-.38-2.85c-.13-.44-.35-.67-.66-.67q-1.1,0-4.43,5.76a16.06,16.06,0,0,1-1.47,2.25,1.25,1.25,0,0,1-.86.52,1.15,1.15,0,0,1-.77-.27.85.85,0,0,1-.32-.67,7.42,7.42,0,0,1,.17-1.13q1.29-6.66,2-13.17a4.86,4.86,0,0,1,.54-2c.25-.33.46-.5.63-.5a1.12,1.12,0,0,1,.81.36,1.38,1.38,0,0,1,.37,1,20.83,20.83,0,0,1-.94,5.29c-.31,1.12-.63,2.53-1,4.24A24.29,24.29,0,0,0,6.35,41c0,.09,0,.13.11.13Z"/><path class="cls-3" d="M25.29,40.47a13.19,13.19,0,0,1-2.9,3,4.83,4.83,0,0,1-2.64,1,1.8,1.8,0,0,1-1.39-.68A2.59,2.59,0,0,1,17.77,42,9.91,9.91,0,0,1,20.24,36q2.46-3.18,4.89-3.18a1.4,1.4,0,0,1,1.31,1,.46.46,0,0,0,.43.33c.56,0,.84.22.84.65a5.17,5.17,0,0,1-.11.89A29.09,29.09,0,0,0,27,40.1c0,1.69.32,2.71,1,3a.73.73,0,0,1,.46.62.89.89,0,0,1-.45.66,1.48,1.48,0,0,1-.87.33c-.53,0-1-.37-1.33-1.11A7.67,7.67,0,0,1,25.29,40.47Zm-.64-5.9c-.92,0-2,.86-3.22,2.59a8.15,8.15,0,0,0-1.83,4.31c0,.8.26,1.2.79,1.2.77,0,1.84-.77,3.2-2.33a6.78,6.78,0,0,0,2-4.27C25.63,35.07,25.31,34.57,24.65,34.57Z"/><path class="cls-3" d="M38,36.23a1.73,1.73,0,0,0-1.19.71,18.76,18.76,0,0,0-2,3.19,21,21,0,0,1-2.25,3.8,1.41,1.41,0,0,1-.85.46,1.07,1.07,0,0,1-1.23-1.19,7.77,7.77,0,0,1,.17-1.43,37.68,37.68,0,0,0,.57-6.68,1.56,1.56,0,0,1,.34-.88c.23-.33.44-.49.65-.49a.85.85,0,0,1,.77.34,2.56,2.56,0,0,1,.23,1.35,30,30,0,0,1-.63,4.36,10.13,10.13,0,0,0-.21,1.38c0,.11,0,.17.09.17a12.59,12.59,0,0,0,1.46-2.51,16.23,16.23,0,0,1,2.29-3.58,3,3,0,0,1,2.17-1,1.81,1.81,0,0,1,1.54.86,7.58,7.58,0,0,1,.86,3.14,18.9,18.9,0,0,0,.53,3.22q.24.63.75.63a1.93,1.93,0,0,0,.82-.23.24.24,0,0,1,.12,0c.3,0,.45.17.45.52a1.35,1.35,0,0,1-.62,1,2.19,2.19,0,0,1-1.48.52A1.55,1.55,0,0,1,40,43.08a10.09,10.09,0,0,1-.77-3.77C39,37.25,38.59,36.23,38,36.23Z"/><path class="cls-3" d="M52.57,40a13.11,13.11,0,0,1-3,3.47,4.87,4.87,0,0,1-2.89,1.22,1.92,1.92,0,0,1-1.61-.78,3.38,3.38,0,0,1-.59-2.08,9,9,0,0,1,2.15-5.44q2.16-2.79,4.65-2.79a2.82,2.82,0,0,1,2,.94l1.46-6.86a1.36,1.36,0,0,1,.58-.94,1.55,1.55,0,0,1,.67-.24c.49,0,.73.43.73,1.3a11.14,11.14,0,0,1-.48,1.71,51.13,51.13,0,0,0-1.45,5.67,28.26,28.26,0,0,0-.69,5.39c0,1.4.31,2.1.92,2.1a2.3,2.3,0,0,0,1.21-.39.92.92,0,0,1,.49-.19c.23,0,.34.15.34.44s-.31.77-.94,1.24a3.16,3.16,0,0,1-1.92.7c-1.15,0-1.73-1.11-1.73-3.33C52.52,40.71,52.54,40.33,52.57,40ZM51.2,35c-1.13,0-2.26.77-3.37,2.3a7.43,7.43,0,0,0-1.66,4.25c0,.87.29,1.31.87,1.31A3.56,3.56,0,0,0,49,42a10.56,10.56,0,0,0,2.41-2.74,6.11,6.11,0,0,0,1.24-2.82,1.48,1.48,0,0,0-.43-.95A1.31,1.31,0,0,0,51.2,35Z"/><path class="cls-3" d="M68.22,40.73q0,1.07-1.89,2.58a6.2,6.2,0,0,1-3.91,1.51,3.34,3.34,0,0,1-2.6-1,3.94,3.94,0,0,1-.92-2.77,9.46,9.46,0,0,1,2-5.71q2-2.7,4.43-2.7a1.71,1.71,0,0,1,1.28.51,1.75,1.75,0,0,1,.5,1.24,4.25,4.25,0,0,1-1.58,3.09,20.22,20.22,0,0,1-4.24,2.91.83.83,0,0,0-.54.73,1.94,1.94,0,0,0,.5,1.39,2,2,0,0,0,1.49.53q2.25,0,4.6-2.5c.23-.23.41-.34.52-.34S68.22,40.38,68.22,40.73ZM60.94,39.1q4.44-2.64,4.44-4.25,0-.63-.57-.63c-.64,0-1.36.48-2.17,1.42A8,8,0,0,0,60.94,39.1Z"/><path class="cls-3" d="M74.08,26.54q.75,0,.75,1a21,21,0,0,1-.91,4.09A31.57,31.57,0,0,0,73,36.08a31.89,31.89,0,0,0-.31,3.84,26.26,26.26,0,0,0,.22,3.44c0,.22,0,.38,0,.47a1.29,1.29,0,0,1-.36.91,1,1,0,0,1-.75.37c-.37,0-.63-.23-.77-.69a7.92,7.92,0,0,1-.22-2.23,55.09,55.09,0,0,1,.85-8.7c.56-3.46,1-5.48,1.34-6.07S73.74,26.54,74.08,26.54Z"/><path class="cls-3" d="M83.69,36.23a1.73,1.73,0,0,0-1.19.71,19.27,19.27,0,0,0-2,3.19,21.9,21.9,0,0,1-2.24,3.8,1.41,1.41,0,0,1-.85.46,1.07,1.07,0,0,1-1.23-1.19,8.53,8.53,0,0,1,.16-1.43A36.75,36.75,0,0,0,77,35.09a1.56,1.56,0,0,1,.34-.88c.23-.33.44-.49.65-.49a.85.85,0,0,1,.77.34,2.67,2.67,0,0,1,.23,1.35,30,30,0,0,1-.63,4.36,10.13,10.13,0,0,0-.21,1.38c0,.11,0,.17.09.17a12.32,12.32,0,0,0,1.45-2.51,16.57,16.57,0,0,1,2.3-3.58,3,3,0,0,1,2.17-1,1.78,1.78,0,0,1,1.53.86,7.4,7.4,0,0,1,.87,3.14A17.88,17.88,0,0,0,87,41.41c.16.42.4.63.75.63a1.9,1.9,0,0,0,.81-.23.3.3,0,0,1,.13,0c.3,0,.45.17.45.52a1.35,1.35,0,0,1-.62,1,2.22,2.22,0,0,1-1.49.52,1.55,1.55,0,0,1-1.37-.71,9.88,9.88,0,0,1-.77-3.77C84.73,37.25,84.32,36.23,83.69,36.23Z"/></g></g></svg>