<?xml version="1.0" encoding="utf-8"?>
<!-- Generator: Adobe Illustrator 20.1.0, SVG Export Plug-In . SVG Version: 6.00 Build 0)  -->
<svg version="1.1" id="Ebene_1" xmlns="http://www.w3.org/2000/svg" xmlns:xlink="http://www.w3.org/1999/xlink" x="0px" y="0px"
	 viewBox="0 0 233 67.2" style="enable-background:new 0 0 233 67.2;" xml:space="preserve">
<style type="text/css">
	.st0{fill:none;stroke:#000000;stroke-width:0.895;stroke-miterlimit:10;}
	.st1{fill:#C50E1F;}
	.st2{fill:none;stroke:#981C21;stroke-width:1.163;stroke-miterlimit:10;}
	.st3{fill:#4F6E72;}
</style>
<path d="M98.4,12.4v11.7c0.5,0,6.4,0,6.4,0v16.6c-0.1,7.6-4.6,12.9-11.1,12.9c-5,0-7.8-3.5-7.8-10V12.4H65.4
	c-0.1,0.3-4.7,10.9-5,11.7c0.8,0,10.8,0,10.8,0v21.7c0,13,7,20.7,18.8,20.7c5.4,0,10.7-2,14.6-5.4l0.5-0.4l-0.1,2.8v2h21.5V53.6
	h-6.6V12.4H98.4z"/>
<path class="st0" d="M98.4,12.5v11.6c0.5,0,6.4,0,6.4,0v16.5c-0.1,7.6-4.6,12.8-11,12.8c-5,0-7.7-3.5-7.7-9.9v-31H65.6
	c-0.1,0.3-4.7,10.9-5,11.6c0.8,0,10.7,0,10.7,0v21.5c0,12.9,7,20.6,18.7,20.6c5.4,0,10.6-2,14.5-5.4l0.5-0.4l-0.1,2.8v2h21.4V53.5
	h-6.6v-41C119.7,12.5,98.4,12.5,98.4,12.5z"/>
<path d="M151,17.1l-0.5,0.6c0,0,0-4.8,0-5.3h-22v11.7c0.5,0,7.7,0,7.7,0v29.6h-6.3v11.7h28.4V53.6h-7.2V40.4
	c0-7.2,3.1-15.6,11.9-15.6c0.8,0,1.8,0.2,2.8,0.5c0.3,0.1,0.9,0.3,0.9,0.3l7.4-11.6c0,0-2.7-1.2-4.2-1.6s-4-1-6.9-1
	C158.3,11.4,154.1,13.4,151,17.1"/>
<path class="st0" d="M151,17.2l-0.5,0.6c0,0,0-4.8,0-5.3h-21.8v11.6c0.5,0,7.6,0,7.6,0v29.4H130v11.6h28.2V53.5H151V40.3
	c0-7.1,3.1-15.5,11.8-15.5c0.8,0,1.8,0.2,2.7,0.5c0.3,0.1,0.8,0.3,0.8,0.3l7.3-11.5c0,0-2.6-1.2-4.1-1.6s-4-1-6.8-1
	C158.2,11.6,154,13.5,151,17.2"/>
<path class="st1" d="M0.6,43.7c0.5,0,10.4,0,10.4,0l0.1,0.2c2,6.5,6.2,12.3,11.6,16.3c5.7,4.3,12.5,6.5,19.7,6.5
	c9.6,0,18.8-4.2,25-11.5c0,0,0-0.1,0.1-0.1V55l-8.8-8.8l0,0c0,0-0.1,0.1-0.1,0.2c-3.9,5-9.8,7.9-16.2,7.9c-7.3,0-14.1-3.9-17.8-10.2
	l-0.2-0.4c0,0,21.5,0,21.9,0c0.1-0.3,3.7-8.7,4-9.4c-0.8,0-49.1,0-49.7,0C0.6,34.3,0.6,43.7,0.6,43.7z M23.7,6.6L23.7,6.6
	c-5.3,3.7-9.4,8.8-11.8,14.7l-0.1,0.2c0,0-10.7,0-11.3,0v9.4h51.1c0.1-0.3,3.7-8.7,4-9.4c-0.8,0-29.9,0-29.9,0l0.4-0.5
	c3.9-4.9,9.9-7.9,16.2-7.9c5.3,0,10.3,2,14.1,5.6c0.1,0.1,0.2,0.2,0.2,0.2l0,0C56.9,18.2,61.7,7,61.7,7l0,0
	c-0.1-0.1-0.2-0.1-0.3-0.2c-5.6-4-12.2-6.1-19.1-6.1C35.7,0.8,29.2,2.8,23.7,6.6"/>
<path class="st2" d="M0.6,43.7c0.5,0,10.4,0,10.4,0l0.1,0.2c2,6.5,6.2,12.3,11.6,16.3c5.7,4.3,12.5,6.5,19.7,6.5
	c9.6,0,18.8-4.2,25-11.5c0,0,0-0.1,0.1-0.1V55l-8.8-8.8l0,0c0,0-0.1,0.1-0.1,0.2c-3.9,5-9.8,7.9-16.2,7.9c-7.3,0-14.1-3.9-17.8-10.2
	l-0.2-0.4c0,0,21.5,0,21.9,0c0.1-0.3,3.7-8.7,4-9.4c-0.8,0-49.1,0-49.7,0C0.6,34.3,0.6,43.7,0.6,43.7z M23.7,6.6L23.7,6.6
	c-5.3,3.7-9.4,8.8-11.8,14.7l-0.1,0.2c0,0-10.7,0-11.3,0v9.4h51.1c0.1-0.3,3.7-8.7,4-9.4c-0.8,0-29.9,0-29.9,0l0.4-0.5
	c3.9-4.9,9.9-7.9,16.2-7.9c5.3,0,10.3,2,14.1,5.6c0.1,0.1,0.2,0.2,0.2,0.2l0,0C56.9,18.2,61.7,7,61.7,7l0,0
	c-0.1-0.1-0.2-0.1-0.3-0.2c-5.6-4-12.2-6.1-19.1-6.1C35.7,0.8,29.2,2.8,23.7,6.6"/>
<path d="M186,46.8c-1-2.2-1.5-4.8-1.5-7.3c0-3.5,0.9-14.9,12.3-14.9c7.1,0,11.1,4.8,11.1,13.4c0,2.2-0.3,5.7-1.7,8.8h17
	c0.6-2.4,0.9-5,0.9-7.7c0-7.3-2.1-14-5.9-18.8c-4.8-6.1-12.1-9.3-21.2-9.3c-16.9,0-28.8,11.9-28.8,28.9c0,2.4,0.3,4.7,0.8,6.9
	C169,46.8,186,46.8,186,46.8z"/>
<g>
	<path class="st3" d="M169.5,48.3h6.7c2.3,0,4,0.6,5.1,1.7c1,1,1.5,2.3,1.5,4v0.1c0,2.5-1.2,4.1-3,5l3.5,6.2h-5l-2.9-5.3h-1.6v5.3
		h-4.4L169.5,48.3L169.5,48.3z M176.1,56.6c1.5,0,2.4-0.9,2.4-2.2l0,0c0-1.5-0.9-2.2-2.4-2.2H174v4.5L176.1,56.6L176.1,56.6z"/>
	<path class="st3" d="M184.3,57v-0.4c0-5.1,3.3-8.7,7.9-8.7c4.6,0,7.9,3.5,7.9,8.7V57c0,5.1-3.3,8.7-7.9,8.7S184.3,62.1,184.3,57z
		 M195.7,57v-0.3c0-3-1.4-4.8-3.4-4.8s-3.4,1.8-3.4,4.7v0.3c0,3,1.4,4.8,3.4,4.8S195.7,59.9,195.7,57z"/>
	<path class="st3" d="M202.2,48.3h7.1c2,0,3.6,0.5,4.6,1.5c0.7,0.7,1.1,1.6,1.1,2.8v0.1c0,2-1.1,3.1-2.5,3.8c1.8,0.7,3.1,1.8,3.1,4
		v0.1c0,2.9-2.3,4.7-6.3,4.7h-7.1L202.2,48.3L202.2,48.3z M210.7,53.5c0-1-0.7-1.6-2-1.6h-2.2v3.2h2.1
		C209.9,55.1,210.7,54.6,210.7,53.5L210.7,53.5z M209,58.4h-2.6v3.3h2.6c1.4,0,2.2-0.6,2.2-1.7l0,0C211.2,59,210.5,58.4,209,58.4z"
		/>
	<path class="st3" d="M216.9,57v-0.4c0-5.1,3.3-8.7,7.9-8.7c4.6,0,7.9,3.5,7.9,8.7V57c0,5.1-3.3,8.7-7.9,8.7S216.9,62.1,216.9,57z
		 M228.3,57v-0.3c0-3-1.4-4.8-3.4-4.8s-3.4,1.8-3.4,4.7v0.3c0,3,1.4,4.8,3.4,4.8C226.9,61.7,228.3,59.9,228.3,57z"/>
</g>
</svg>
