<svg xmlns="http://www.w3.org/2000/svg" width="93" height="30" viewBox="0 0 93 30">
    <g fill="#111" fill-rule="evenodd">
        <path d="M8.201 30L10.093 30 10.093 18.125 8.201 18.125zM15.77 29.822L17.702 29.822 17.702 22.328 25.863 30 25.863 18.303 23.932 18.303 23.932 25.67 15.77 18.125zM31.007 26.947c1.093.843 2.402 1.33 3.808 1.33 1.366 0 2.324-.469 2.324-1.499 0-.899-.606-1.255-1.68-1.648l-1.738-.6c-1.6-.56-2.811-1.385-2.811-3.277 0-2.023 1.835-3.128 4.042-3.128 1.347 0 2.577.337 3.534.937v2.004c-.996-.73-2.09-1.237-3.495-1.237-1.211 0-2.11.45-2.11 1.387 0 .842.567 1.18 1.563 1.517l1.933.674c1.875.655 2.733 1.667 2.733 3.334 0 2.098-1.854 3.259-4.295 3.259-1.601 0-2.968-.45-3.808-1.011v-2.042zM43.526 30L45.419 30 45.419 18.125 43.526 18.125zM56.106 28.202c2.44 0 3.746-1.606 3.746-4.14 0-2.553-1.306-4.158-3.746-4.158h-2.412v8.298h2.412zm-4.38-10.077h4.456c3.424 0 5.638 2.32 5.638 5.937 0 3.617-2.214 5.938-5.638 5.938h-4.455V18.125zM73.174 18.125L73.174 19.904 68.135 19.904 68.135 22.761 72.653 22.761 72.653 24.522 68.135 24.522 68.135 28.202 73.174 28.202 73.174 30 66.235 30 66.235 18.125zM80.151 23.501h2.167c1.28 0 2.005-.715 2.005-1.818 0-1.102-.724-1.817-2.005-1.817h-2.167V23.5zm0 1.683V30h-1.93V18.125h4.134c2.358 0 3.88 1.238 3.88 3.558 0 1.993-.85 3.134-2.65 3.424L87.683 30h-2.19l-3.968-4.816H80.15zM84.53 3.128c0 1.891 1.21 2.716 2.81 3.278l1.739.599c1.073.393 1.679.75 1.679 1.648 0 1.03-.957 1.499-2.324 1.499-1.406 0-2.714-.487-3.807-1.33v2.041c.84.562 2.206 1.012 3.807 1.012 2.44 0 4.296-1.162 4.296-3.26 0-1.666-.86-2.678-2.734-3.333l-1.933-.674c-.996-.338-1.562-.675-1.562-1.518 0-.936.898-1.385 2.108-1.385 1.407 0 2.5.505 3.496 1.235V.937C91.148.337 89.918 0 88.57 0c-2.207 0-4.042 1.105-4.042 3.128M59.927 0L59.927 11.875 66.866 11.875 66.866 10.079 61.829 10.079 61.829 6.394 66.347 6.394 66.347 4.636 61.829 4.636 61.829 1.778 66.866 1.778 66.866 0zM32.969 5.376h2.311c1.366 0 2.139-.715 2.139-1.818 0-1.102-.773-1.817-2.139-1.817H32.97v3.635zm0 1.683v4.816h-2.06V0h4.411c2.515 0 4.138 1.238 4.138 3.558 0 1.993-.905 3.134-2.826 3.424l4.37 4.893h-2.335l-4.233-4.816h-1.465zM47.435 5.164L52.205 0 54.706 0 49.335 5.686 54.881 11.875 52.321 11.875 47.435 6.441 47.435 11.875 45.419 11.875 45.419 0 47.435 0zM71.282 0L81.375 0 81.375 1.78 77.353 1.78 77.353 11.875 75.303 11.875 75.303 1.78 71.282 1.78zM19.143 8.65l1.98-4.55 1.98 4.55h-3.96zm5.364 3.225h1.987L21.132 0 15.77 11.875h1.97l.66-1.518h5.446l.661 1.518zM10.034 5.126L10.034 11.875 11.985 11.875 11.985 0 5.993 6.329 0 0 0 11.875 1.952 11.875 1.952 5.126 5.993 9.393z"/>
    </g>
</svg>
