<svg id="Ebene_1" data-name="Ebene 1" xmlns="http://www.w3.org/2000/svg" viewBox="0 0 278 138"><defs><style>.cls-1{fill:#111;}.cls-1,.cls-2,.cls-3,.cls-4,.cls-5{fill-rule:evenodd;}.cls-2{fill:#ff433d;}.cls-3{fill:#007aff;}.cls-4{fill:#18bb5c;}.cls-5{fill:#fff;}</style></defs><path class="cls-1" d="M2.1,136.9C3.3,62.4,64.2,2.2,139,2.2S274.7,62.4,275.9,136.9H277C275.8,61.8,214.3,1.1,139,1.1S2.2,61.8,1,136.9Z"/><path class="cls-2" d="M72.2,24.4A130.19,130.19,0,0,0,7.9,136.9h39a91.5,91.5,0,0,1,45-78.8Z"/><path class="cls-3" d="M92.8,57.6a91.47,91.47,0,0,1,92.4,0l19.7-33.7A130.76,130.76,0,0,0,73,23.9Z"/><path class="cls-4" d="M186.3,58.1a91.37,91.37,0,0,1,45,78.8h39A130.65,130.65,0,0,0,206.1,24.4Z"/><path class="cls-5" d="M253,135.5a114,114,0,0,0-228,0C25,198.5,253,198.5,253,135.5Z"/></svg>