<?xml version="1.0" encoding="UTF-8"?>
<svg width="16px" height="16px" viewBox="0 0 16 16" version="1.1" xmlns="http://www.w3.org/2000/svg" xmlns:xlink="http://www.w3.org/1999/xlink">
    <title>Group 3</title>
    <g id="Page-1" stroke="none" stroke-width="1" fill="none" fill-rule="evenodd">
        <g id="navigation_mega_menu_hebelprodukte" transform="translate(-313.000000, -407.000000)">
            <g id="Group-3" transform="translate(313.000000, 407.000000)">
                <rect id="Rectangle" fill="#002C51" x="0" y="0" width="16" height="16"></rect>
                <g id="Group-2" transform="translate(2.000000, 4.000000)" fill="#FFFFFF">
                    <path d="M9.4912286,0 C8.83887773,0 8.24912388,0.212064859 7.83041096,0.593939283 C7.42380939,0.96643103 7.19883094,1.48059916 7.19883094,2.03636364 C7.19884164,2.6484634 7.43785196,3.12673745 7.93567251,3.50303019 C8.37473283,3.83530268 8.95546359,4.04983843 9.51462149,4.25454534 C10.4866387,4.612864 11.3976608,4.93988461 11.3976608,5.85454534 C11.3976608,6.26131782 11.2641409,6.61005188 11.0116975,6.84848474 C10.7341268,7.11068703 10.3347839,7.23636353 9.80701754,7.23636353 C8.88196785,7.23636353 8.20851676,6.7055514 7.83041096,5.67272727 C7.83040668,5.67272727 7,5.90303019 7,5.90303019 C7.17885353,6.32189274 7.48308932,6.9263708 7.92397821,7.33333322 C8.40738406,7.78281115 9.00744207,8 9.76023606,8 C10.6516978,8 11.3284211,7.76168727 11.7719298,7.28484837 C12.231714,6.78845285 12.3333333,6.15318497 12.3333333,5.7090908 C12.3333333,5.07271758 12.0737788,4.5813217 11.5497081,4.19393939 C11.092176,3.85381624 10.5001188,3.63459868 9.92397768,3.43030292 C8.98522546,3.09761928 8.08945003,2.78100934 8.09941627,1.96363636 C8.10273551,1.58250268 8.23026713,1.28581042 8.46198884,1.07878777 C8.69814617,0.868479889 9.03471452,0.763636253 9.46783786,0.763636253 C9.92276932,0.763640242 10.3284235,0.895418182 10.6374285,1.15151504 C10.9215949,1.3847583 11.1283753,1.73090909 11.2222228,2.12121201 C11.222227,2.12121201 12.0292408,2.01212121 12.0292408,2.01212121 C11.6751866,0.761192616 10.8098724,0 9.4912286,0 Z" id="path813-path"></path>
                    <polygon id="path813-path" points="2.0206059e-13 0 2.0206059e-13 8 0.820756572 8 0.820756572 0.685358369 0.842939182 0.710280488 2.79500887 8 3.42721336 8 5.39037424 0.710280488 5.40146545 0.685358369 5.40146545 8 6.22222222 8 6.22222222 0 4.8579916 0 3.11665681 6.42990654 3.11665681 6.45482866 3.10556541 6.42990654 1.36423042 0"></polygon>
                </g>
            </g>
        </g>
    </g>
</svg>