<?xml version="1.0" encoding="utf-8"?>
<!-- Generator: Adobe Illustrator 26.0.3, SVG Export Plug-In . SVG Version: 6.00 Build 0)  -->
<svg version="1.1" id="Ebene_1" xmlns="http://www.w3.org/2000/svg" xmlns:xlink="http://www.w3.org/1999/xlink" x="0px" y="0px"
	 viewBox="0 0 320 120" style="enable-background:new 0 0 320 120;" xml:space="preserve">
<style type="text/css">
	.st0{fill:url(#Path_00000035523686969429196790000015329406961165296805_);}
	.st1{fill-rule:evenodd;clip-rule:evenodd;fill:#02172D;}
</style>
<g id="zero-logo-dark">
	<g id="zero-logo-copy" transform="translate(10.000000, 10.000000)">
		
			<linearGradient id="Path_00000110443001311521235210000005431807821711688612_" gradientUnits="userSpaceOnUse" x1="-526.2282" y1="431.5806" x2="-526.0271" y2="431.0145" gradientTransform="matrix(96.9874 0 0 -100 51075.3086 43177)">
			<stop  offset="0" style="stop-color:#E81673"/>
			<stop  offset="1" style="stop-color:#2C8BF1"/>
		</linearGradient>
		<path id="Path" style="fill:url(#Path_00000110443001311521235210000005431807821711688612_);" d="M96.9874,31.3976v-8.8102
			C96.9805,16.5992,94.67,10.8571,90.563,6.6228C86.4562,2.3884,80.8887,0.007,75.0809,0H21.9065
			c-5.808,0.007-11.3763,2.3884-15.4832,6.6228C2.3165,10.8571,0.0067,16.5992,0,22.5875v31.4856l10.7234-5.4787V22.5875
			c0.0034-3.0567,1.1827-5.987,3.2793-8.1483c2.0965-2.1612,4.9391-3.3781,7.9038-3.381h53.1744
			c2.9644,0.003,5.8065,1.2197,7.9028,3.381c2.0962,2.1613,3.2745,5.0918,3.2776,8.1483v1.9472L0,68.6041v8.8084
			c0.0063,5.9884,2.3156,11.7297,6.4225,15.9646c4.1069,4.2349,9.6757,6.6158,15.484,6.6229h53.1744
			c5.8081-0.0071,11.3759-2.3881,15.483-6.6229c4.107-4.2349,6.4173-9.9762,6.4235-15.9646V45.9376l-10.7261,5.4787v26.0052
			c-0.0031,3.0568-1.1814,5.9868-3.2776,8.1484c-2.0962,2.1616-4.9383,3.3774-7.9028,3.381H21.9065
			c-2.9648-0.0036-5.8074-1.2197-7.9038-3.381c-2.0965-2.1616-3.2759-5.0916-3.2793-8.1484v-1.9455L96.9874,31.3976z"/>
		<polygon id="Path_00000036231927247986157460000004879890941098680509_" class="st1" points="125.447,87.3293 154.8817,50.0647 
			160.0879,44.0776 152.1785,44.1808 125.1466,44.1808 125.1466,39.7421 165.6945,39.7421 165.6945,43.7679 137.1608,80.1035 
			131.1537,87.0196 140.1644,86.9164 166.8959,86.9164 166.8959,91.3551 125.447,91.3551 		"/>
		<path id="Shape" class="st1" d="M215.5675,64.3099c0,1.17-0.0667,2.3055-0.2002,3.4065h-39.7469
			c0.3338,6.3313,2.136,11.2862,5.4064,14.8646c3.3374,3.5097,7.7757,5.2645,13.3157,5.2645c3.9381,0,7.3086-0.8258,10.1119-2.4774
			c2.8699-1.6516,4.9393-3.9913,6.2073-7.0194l4.205,2.271c-1.8688,3.7849-4.5388,6.7097-8.0095,8.7742
			c-3.4707,1.9958-7.6425,2.9936-12.5148,2.9936c-7.4088,0-13.2156-2.3742-17.4206-7.1226
			c-4.1383-4.7484-6.2073-11.3204-6.2073-19.7162s2.0024-14.9678,6.0071-19.7162c4.0714-4.7484,9.7449-7.1226,17.0201-7.1226
			c6.808,0,12.1478,2.3397,16.0189,7.0194C213.6317,50.4089,215.5675,56.6024,215.5675,64.3099z M193.7417,43.2518
			c-5.4064,0-9.678,1.7548-12.8151,5.2645c-3.1371,3.441-4.9058,8.2926-5.3063,14.5549h35.2416
			c-0.3338-6.1936-2.0024-11.0452-5.0059-14.5549C202.9191,45.0066,198.8812,43.2518,193.7417,43.2518z"/>
		<path id="Path_00000155117385392542881330000002927489074229657768_" class="st1" d="M245.8626,38.7098
			c2.6697,0,4.7722,0.5848,6.3074,1.7548l-1.3015,4.8516c-1.5352-1.2387-3.6709-1.8581-6.4076-1.8581
			c-2.5364,0-4.9393,0.8258-7.2085,2.4774c-2.2026,1.5829-4.0047,3.8539-5.4064,6.8129c-1.335,2.8903-2.0024,6.1249-2.0024,9.7033
			v28.9033h-5.0059V39.7421h4.205l0.6007,10.5291c1.4017-3.6474,3.4707-6.4687,6.2073-8.4645
			C238.6541,39.7421,241.9915,38.7098,245.8626,38.7098z"/>
		<path id="Shape_00000023244167060527212700000003740850995222472344_" class="st1" d="M275.8496,38.7098
			c7.4088,0,13.2156,2.4087,17.4206,7.2258c4.2716,4.7484,6.4076,11.2862,6.4076,19.613s-2.136,14.8991-6.4076,19.7162
			c-4.205,4.7484-10.0118,7.1226-17.4206,7.1226s-13.2491-2.3742-17.5207-7.1226c-4.205-4.8171-6.3075-11.3894-6.3075-19.7162
			s2.1025-14.8646,6.3075-19.613C262.6005,41.1185,268.4409,38.7098,275.8496,38.7098z M275.8496,43.1485
			c-5.8735,0-10.4789,1.9958-13.8163,5.9871c-3.3374,3.9913-5.0059,9.4623-5.0059,16.413s1.6685,12.4217,5.0059,16.413
			c3.3374,3.9913,7.9428,5.9871,13.8163,5.9871s10.4789-1.9958,13.8163-5.9871s5.0059-9.4623,5.0059-16.413
			s-1.6685-12.4217-5.0059-16.413S281.7231,43.1485,275.8496,43.1485z"/>
		<polygon id="Path_00000091702155594451461520000008939868463565739161_" class="st1" points="127.659,9.4083 127.659,16.2186 
			135.8702,16.2186 135.8702,17.4738 127.659,17.4738 127.659,25.8065 126.364,25.8065 126.364,8.1797 138.0202,8.1797 
			138.0202,9.4083 		"/>
		<polygon id="Path_00000062906635846562692760000012188101282751792270_" class="st1" points="142.5271,25.8065 141.2319,25.8065 
			141.2319,8.1797 142.5271,8.1797 		"/>
		<polygon id="Path_00000132773613680868105950000004495811797868842931_" class="st1" points="160.784,25.8065 159.1781,25.8065 
			150.1117,11.9722 148.8427,9.6219 148.8168,9.6219 148.8943,11.8386 148.8943,25.8065 147.651,25.8065 147.651,8.1797 
			149.2829,8.1797 158.323,21.9874 159.6183,24.3643 159.5663,22.1476 159.5663,8.1797 160.784,8.1797 		"/>
		<path id="Shape_00000067914728143766509340000013742218731284129921_" class="st1" d="M175.3894,20.2781h-8.1856l-2.1241,5.5284
			h-1.3729l6.8384-17.6268h1.5284l6.8384,17.6268h-1.3729L175.3894,20.2781z M174.9229,19.0496l-2.9788-7.6917l-0.6217-1.8695
			h-0.026l-0.6217,1.8161l-2.9788,7.7451H174.9229z"/>
		<polygon id="Path_00000152230868925831190250000003158627337446351774_" class="st1" points="194.9719,25.8065 193.3659,25.8065 
			184.2999,11.9722 183.0306,9.6219 183.0049,9.6219 183.0825,11.8386 183.0825,25.8065 181.8392,25.8065 181.8392,8.1797 
			183.4711,8.1797 192.5112,21.9874 193.8065,24.3643 193.7545,22.1476 193.7545,8.1797 194.9719,8.1797 		"/>
		<polygon id="Path_00000136369866870204202870000011162983150990856087_" class="st1" points="211.7273,24.578 211.7273,25.8065 
			198.5167,25.8065 198.5167,24.6314 209.7847,9.4083 198.7498,9.4083 198.7498,8.1797 211.3128,8.1797 211.3128,9.3548 
			200.0451,24.578 		"/>
		<polygon id="Path_00000164502334606908954210000002077192186099794610_" class="st1" points="227.2891,24.578 227.2891,25.8065 
			215.1927,25.8065 215.1927,8.1797 226.8749,8.1797 226.8749,9.4083 216.4876,9.4083 216.4876,16.2186 224.6989,16.2186 
			224.6989,17.4738 216.4876,17.4738 216.4876,24.578 		"/>
		<polygon id="Path_00000111889914025075906720000008386709032610579623_" class="st1" points="243.9269,25.8065 242.3209,25.8065 
			233.2549,11.9722 231.9856,9.6219 231.9596,9.6219 232.0376,11.8386 232.0376,25.8065 230.7942,25.8065 230.7942,8.1797 
			232.4261,8.1797 241.4662,21.9874 242.7615,24.3643 242.7095,22.1476 242.7095,8.1797 243.9269,8.1797 		"/>
		<path id="Path_00000168098530327324053080000013524228491386232233_" class="st1" d="M249.2072,23.6165
			c0.3454,0,0.6217,0.1157,0.8288,0.3472c0.2246,0.2136,0.337,0.4985,0.337,0.8546s-0.1123,0.6499-0.337,0.8813
			c-0.2071,0.2137-0.4834,0.3205-0.8288,0.3205s-0.6304-0.1068-0.8548-0.3205c-0.2074-0.2315-0.311-0.5252-0.311-0.8813
			s0.1036-0.641,0.311-0.8546C248.5768,23.7322,248.8618,23.6165,249.2072,23.6165z"/>
		<polygon id="Path_00000071522580606426907440000009469542109505632152_" class="st1" points="267.6174,25.8065 266.0111,25.8065 
			256.9451,11.9722 255.6758,9.6219 255.6501,9.6219 255.7277,11.8386 255.7277,25.8065 254.4844,25.8065 254.4844,8.1797 
			256.1163,8.1797 265.1563,21.9874 266.4516,24.3643 266.3997,22.1476 266.3997,8.1797 267.6174,8.1797 		"/>
		<polygon id="Path_00000165955993702055009210000014940930613067528629_" class="st1" points="284.8387,24.578 284.8387,25.8065 
			272.7422,25.8065 272.7422,8.1797 284.4244,8.1797 284.4244,9.4083 274.0371,9.4083 274.0371,16.2186 282.2484,16.2186 
			282.2484,17.4738 274.0371,17.4738 274.0371,24.578 		"/>
		<polygon id="Path_00000018944075525247238490000011538924839176528536_" class="st1" points="300,9.4083 293.7573,9.4083 
			293.7573,25.8065 292.4623,25.8065 292.4623,9.4083 286.2197,9.4083 286.2197,8.1797 300,8.1797 		"/>
	</g>
</g>
</svg>
