<?xml version="1.0" encoding="UTF-8"?>
<svg width="320px" height="120px" viewBox="0 0 320 120" version="1.1" xmlns="http://www.w3.org/2000/svg" xmlns:xlink="http://www.w3.org/1999/xlink">
    <title>zero-logo-light</title>
    <defs>
        <linearGradient x1="7.8196407%" y1="30.006218%" x2="27.9300975%" y2="86.6129398%" id="linearGradient-1">
            <stop stop-color="#E81673" offset="0%"></stop>
            <stop stop-color="#2C8BF1" offset="100%"></stop>
        </linearGradient>
    </defs>
    <g id="zero-logo-light" stroke="none" stroke-width="1" fill="none" fill-rule="evenodd">
        <g id="zero-logo-copy" transform="translate(10.000000, 10.000000)">
            <path d="M96.9874181,31.3976497 L96.9874181,22.58746 C96.9805349,16.5991826 94.6699936,10.8571318 90.5629554,6.6227633 C86.4562301,2.38840448 80.8887171,0.00695679663 75.0809203,0 L21.9065245,0 C16.0985087,0.00695679663 10.5302447,2.38840448 6.42336301,6.6227633 C2.31649382,10.8571318 0.006747344,16.5991826 0,22.58746 L0,54.0730777 L10.7234104,48.5943503 L10.7234104,22.58746 C10.7267894,19.5307404 11.906151,16.6004406 14.0026896,14.4391756 C16.099197,12.2779428 18.9418355,11.0611002 21.9065245,11.0581324 L75.0809203,11.0581324 C78.0453589,11.0611002 80.8874656,12.2778783 82.9836914,14.4391756 C85.0799171,16.6005052 86.2581837,19.530934 86.2613124,22.58746 L86.2613124,24.534692 L0,68.6040923 L0,77.4125078 C0.00626543108,83.4009142 2.31555521,89.142223 6.42248698,93.3770754 C10.5294313,97.6119278 16.0981958,99.9929032 21.9065245,100 L75.0809203,100 C80.88903,99.9929032 86.4568559,97.6119278 90.563894,93.3770754 C94.6709322,89.142223 96.9811607,83.4009142 96.9874181,77.4125078 L96.9874181,45.9375675 L86.2613124,51.4162949 L86.2613124,77.4215401 C86.2581837,80.4783241 85.0799171,83.4083336 82.9836914,85.5699535 C80.8874656,87.7315733 78.0453589,88.9473837 75.0809203,88.9509321 L21.9065245,88.9509321 C18.9416791,88.9473837 16.0991344,87.7312507 14.0026896,85.5699535 C11.9062136,83.4083336 10.7267894,80.4783241 10.7234104,77.4215401 L10.7234104,75.4760499 L96.9874181,31.3976497 Z" id="Path" fill="url(#linearGradient-1)" fill-rule="nonzero"></path>
            <polygon id="Path" fill="#FFFFFF" points="125.446968 87.329314 154.881732 50.0646776 160.087881 44.0775615 152.178539 44.1807877 125.146613 44.1807877 125.146613 39.7420637 165.694503 39.7420637 165.694503 43.7678831 137.160803 80.1034842 131.153708 87.0196355 140.16435 86.9164094 166.895921 86.9164094 166.895921 91.3551334 125.446968 91.3551334"></polygon>
            <path d="M215.567468,64.3098849 C215.567468,65.4798886 215.500827,66.6153762 215.367231,67.7163475 L175.620288,67.7163475 C175.95412,74.0476582 177.756248,79.0025129 181.026673,82.5809116 C184.364052,86.0906003 188.802419,87.8454447 194.3424,87.8454447 C198.280488,87.8454447 201.651032,87.0196355 204.454343,85.3680173 C207.324295,83.7163991 209.393614,81.3767141 210.661674,78.3486398 L214.86664,80.6196149 C212.997871,84.4044658 210.327842,87.329314 206.857181,89.3938368 C203.386519,91.3896496 199.214717,92.3873948 194.3424,92.3873948 C186.93365,92.3873948 181.126791,90.0131936 176.921825,85.2647912 C172.7835,80.5163888 170.714494,73.9444321 170.714494,65.5485985 C170.714494,57.152765 172.716859,50.5808083 176.721589,45.8324059 C180.79296,41.0840035 186.466536,38.7098023 193.74169,38.7098023 C200.549731,38.7098023 205.889475,41.0494873 209.76061,45.7291798 C213.631744,50.4088723 215.567468,56.6024407 215.567468,64.3098849 Z M193.74169,43.2517524 C188.335305,43.2517524 184.063698,45.0065968 180.926555,48.5162855 C177.789412,51.9572644 176.020761,56.8088929 175.620288,63.0711712 L210.86191,63.0711712 C210.528079,56.8776028 208.859545,52.0259743 205.855998,48.5162855 C202.919092,45.0065968 198.881198,43.2517524 193.74169,43.2517524 Z" id="Shape" fill="#FFFFFF"></path>
            <path d="M245.862623,38.7098023 C248.532339,38.7098023 250.634822,39.2946429 252.170073,40.4646467 L250.868535,45.3162752 C249.333285,44.0775615 247.197637,43.4582047 244.460968,43.4582047 C241.924535,43.4582047 239.521697,44.2840138 237.252454,45.9356321 C235.049853,47.5185404 233.247724,49.7895155 231.846069,52.7485573 C230.511055,55.6388892 229.843704,58.8734157 229.843704,62.4518144 L229.843704,91.3551334 L224.837792,91.3551334 L224.837792,39.7420637 L229.042758,39.7420637 L229.643467,50.2711299 C231.045123,46.6236988 233.114129,43.8023994 235.850799,41.8065865 C238.65411,39.7420637 241.991489,38.7098023 245.862623,38.7098023 Z" id="Path" fill="#FFFFFF"></path>
            <path d="M275.849602,38.7098023 C283.258352,38.7098023 289.06521,41.1185197 293.270177,45.9356321 C297.541784,50.6840345 299.677744,57.2217975 299.677744,65.5485985 C299.677744,73.8753996 297.541784,80.4476789 293.270177,85.2647912 C289.06521,90.0131936 283.258352,92.3873948 275.849602,92.3873948 C268.440852,92.3873948 262.600517,90.0131936 258.328909,85.2647912 C254.123943,80.4476789 252.02146,73.8753996 252.02146,65.5485985 C252.02146,57.2217975 254.123943,50.6840345 258.328909,45.9356321 C262.600517,41.1185197 268.440852,38.7098023 275.849602,38.7098023 Z M275.849602,43.1485263 C269.976103,43.1485263 265.370663,45.1443392 262.033284,49.1356424 C258.695905,53.1269456 257.027372,58.597931 257.027372,65.5485985 C257.027372,72.4992661 258.695905,77.9702515 262.033284,81.9615547 C265.370663,85.9528579 269.976103,87.9486708 275.849602,87.9486708 C281.723101,87.9486708 286.328541,85.9528579 289.66592,81.9615547 C293.003299,77.9702515 294.671832,72.4992661 294.671832,65.5485985 C294.671832,58.597931 293.003299,53.1269456 289.66592,49.1356424 C286.328541,45.1443392 281.723101,43.1485263 275.849602,43.1485263 Z" id="Shape" fill="#FFFFFF"></path>
            <polygon id="Path" fill="#FFFFFF" points="127.658955 9.40825616 127.658955 16.2186007 135.870216 16.2186007 135.870216 17.4738306 127.658955 17.4738306 127.658955 25.8065026 126.363988 25.8065026 126.363988 8.17973606 138.020255 8.17973606 138.020255 9.40825616"></polygon>
            <polygon id="Path" fill="#FFFFFF" points="142.527141 25.8065026 141.231861 25.8065026 141.231861 8.17973606 142.527141 8.17973606"></polygon>
            <polygon id="Path" fill="#FFFFFF" points="160.784015 25.8065026 159.178056 25.8065026 150.111723 11.9721677 148.842725 9.62190201 148.816756 9.62190201 148.894348 11.8386188 148.894348 25.8065026 147.651005 25.8065026 147.651005 8.17973606 149.282932 8.17973606 158.322984 21.9873612 159.618264 24.3643044 159.566327 22.1476198 159.566327 8.17973606 160.784015 8.17973606"></polygon>
            <path d="M175.38939,20.2780977 L167.203785,20.2780977 L165.079714,25.8065026 L163.706843,25.8065026 L170.545232,8.17973606 L172.073599,8.17973606 L178.911988,25.8065026 L177.539117,25.8065026 L175.38939,20.2780977 Z M174.922902,19.0495776 L171.944071,11.3578753 L171.322399,9.48838545 L171.296431,9.48838545 L170.67476,11.3044558 L167.695929,19.0495776 L174.922902,19.0495776 Z" id="Shape" fill="#FFFFFF"></path>
            <polygon id="Path" fill="#FFFFFF" points="194.971893 25.8065026 193.365934 25.8065026 184.299914 11.9721677 183.030602 9.62190201 183.004947 9.62190201 183.082539 11.8386188 183.082539 25.8065026 181.839195 25.8065026 181.839195 8.17973606 183.471123 8.17973606 192.511175 21.9873612 193.806454 24.3643044 193.754518 22.1476198 193.754518 8.17973606 194.971893 8.17973606"></polygon>
            <polygon id="Path" fill="#FFFFFF" points="211.727307 24.5779825 211.727307 25.8065026 198.516705 25.8065026 198.516705 24.631402 209.784701 9.40825616 198.749793 9.40825616 198.749793 8.17973606 211.312755 8.17973606 211.312755 9.35483663 200.045073 24.5779825"></polygon>
            <polygon id="Path" fill="#FFFFFF" points="227.289124 24.5779825 227.289124 25.8065026 215.19265 25.8065026 215.19265 8.17973606 226.874885 8.17973606 226.874885 9.40825616 216.487617 9.40825616 216.487617 16.2186007 224.698878 16.2186007 224.698878 17.4738306 216.487617 17.4738306 216.487617 24.5779825"></polygon>
            <polygon id="Path" fill="#FFFFFF" points="243.926899 25.8065026 242.32094 25.8065026 233.25492 11.9721677 231.985609 9.62190201 231.95964 9.62190201 232.037545 11.8386188 232.037545 25.8065026 230.794202 25.8065026 230.794202 8.17973606 232.426129 8.17973606 241.466181 21.9873612 242.761461 24.3643044 242.709524 22.1476198 242.709524 8.17973606 243.926899 8.17973606"></polygon>
            <path d="M249.207198,23.6165278 C249.552606,23.6165278 249.82887,23.7322378 250.03599,23.9637225 C250.26063,24.1773683 250.37295,24.4622402 250.37295,24.8183381 C250.37295,25.174436 250.26063,25.4682112 250.03599,25.6996635 C249.82887,25.9133417 249.552606,26.0201807 249.207198,26.0201807 C248.86179,26.0201807 248.576766,25.9133417 248.352439,25.6996635 C248.145006,25.4682112 248.041446,25.174436 248.041446,24.8183381 C248.041446,24.4622402 248.145006,24.1773683 248.352439,23.9637225 C248.576766,23.7322378 248.86179,23.6165278 249.207198,23.6165278 Z" id="Path" fill="#FFFFFF"></path>
            <polygon id="Path" fill="#FFFFFF" points="267.617379 25.8065026 266.011107 25.8065026 256.945087 11.9721677 255.675776 9.62190201 255.65012 9.62190201 255.727712 11.8386188 255.727712 25.8065026 254.484368 25.8065026 254.484368 8.17973606 256.116296 8.17973606 265.156348 21.9873612 266.451627 24.3643044 266.399691 22.1476198 266.399691 8.17973606 267.617379 8.17973606"></polygon>
            <polygon id="Path" fill="#FFFFFF" points="284.838656 24.5779825 284.838656 25.8065026 272.742182 25.8065026 272.742182 8.17973606 284.424417 8.17973606 284.424417 9.40825616 274.037149 9.40825616 274.037149 16.2186007 282.248409 16.2186007 282.248409 17.4738306 274.037149 17.4738306 274.037149 24.5779825"></polygon>
            <polygon id="Path" fill="#FFFFFF" points="300 9.40825616 293.757315 9.40825616 293.757315 25.8065026 292.462348 25.8065026 292.462348 9.40825616 286.219662 9.40825616 286.219662 8.17973606 300 8.17973606"></polygon>
        </g>
    </g>
</svg>