<?xml version="1.0" encoding="utf-8"?>
<!-- Generator: Adobe Illustrator 26.0.3, SVG Export Plug-In . SVG Version: 6.00 Build 0)  -->
<svg version="1.1" id="Ebene_1" xmlns="http://www.w3.org/2000/svg" xmlns:xlink="http://www.w3.org/1999/xlink" x="0px" y="0px"
	 viewBox="0 0 166 166" style="enable-background:new 0 0 166 166;" xml:space="preserve">
<style type="text/css">
	.st0{fill:url(#Path_00000148628496432585742250000008070982985595935905_);}
</style>
<g id="App-Icon">
	<g id="zero-app-icon" transform="translate(-45.000000, -45.000000)">
		<g id="zero-fav-icon" transform="translate(45.000000, 45.000000)">
			
				<linearGradient id="Path_00000108997350975158441790000006949146450001487013_" gradientUnits="userSpaceOnUse" x1="-595.0136" y1="466.016" x2="-594.7999" y2="465.4499" gradientTransform="matrix(166 0 0 -166 98835 77388)">
				<stop  offset="0" style="stop-color:#E81673"/>
				<stop  offset="1" style="stop-color:#2C8BF1"/>
			</linearGradient>
			<path id="Path" style="fill:url(#Path_00000108997350975158441790000006949146450001487013_);" d="M166,52.1201V37.4952
				c-0.0118-9.9405-3.9664-19.4723-10.9959-26.5014C147.9752,3.9648,138.4461,0.0115,128.5057,0H37.4944
				C27.5536,0.0115,18.0232,3.9648,10.994,10.9938C3.9648,18.0228,0.0115,27.5546,0,37.4952v52.2661l18.3538-9.0947V37.4952
				c0.0058-5.0742,2.0243-9.9384,5.6127-13.5261c3.5883-3.5876,8.4537-5.6076,13.5279-5.6125h91.0113
				c5.0738,0.0049,9.9383,2.0248,13.5261,5.6125c3.5878,3.5878,5.6045,8.4523,5.6098,13.5261v3.2324L0,113.8828v14.622
				c0.0107,9.9408,3.9632,19.4713,10.9925,26.5012c7.0293,7.0298,16.5606,10.9823,26.5019,10.994h91.0113
				c9.9409-0.0118,19.4706-3.9642,26.5001-10.994c7.0294-7.0299,10.9836-16.5604,10.9943-26.5012V76.2564l-18.3584,9.0947v43.1687
				c-0.0054,5.0743-2.022,9.9381-5.6098,13.5264c-3.5878,3.5883-8.4523,5.6065-13.5261,5.6124H37.4944
				c-5.0745-0.0059-9.9397-2.0247-13.5279-5.6124c-3.5882-3.5883-5.6069-8.4521-5.6127-13.5264v-3.2295L166,52.1201z"/>
		</g>
	</g>
</g>
</svg>
